<svg width="70" height="70" viewBox="0 0 70 70" fill="none" xmlns="http://www.w3.org/2000/svg">
<g clip-path="url(#clip0)">
<path d="M69.1711 17H6.74355C6.28402 17 5.91287 17.3805 5.91287 17.8495V19.977H3.83174C3.37222 19.977 3.00106 20.3574 3.00106 20.8265V23.0452H0.830682C0.371156 23.0452 0 23.4257 0 23.8947V52.1505C0 52.6204 0.37204 53 0.830682 53H63.2573C63.7169 53 64.088 52.6195 64.088 52.1505V49.9318H66.2584C66.7179 49.9318 67.0891 49.5513 67.0891 49.0822V46.9548H69.1693C69.6288 46.9548 70 46.5743 70 46.1053V17.8495C70.0018 17.3805 69.6297 17 69.1711 17ZM62.4266 51.3019H1.66225V24.746H62.4266V51.3019ZM65.4277 48.2336H64.088V23.8965C64.088 23.4266 63.716 23.047 63.2573 23.047H4.66242V21.6778H65.4277V48.2336ZM68.3395 45.2558H67.09V20.8274C67.09 20.3574 66.7179 19.9779 66.2593 19.9779H7.57511V18.7H68.3404V45.2558H68.3395Z" fill="#8A919D"/>
<path d="M56.063 50H7.93879C7.60342 50 7.30212 49.792 7.17636 49.4743C6.51174 47.7882 5.17988 46.4405 3.52139 45.7755C3.20698 45.6488 3 45.3391 3 44.9936V31.0064C3 30.6609 3.20698 30.3512 3.52139 30.2245C5.17901 29.5604 6.51086 28.2118 7.17636 26.5257C7.30124 26.2089 7.60255 26 7.93792 26H56.0621C56.3974 26 56.6988 26.208 56.8236 26.5257C57.4891 28.2118 58.8201 29.5595 60.4786 30.2245C60.793 30.3512 61 30.6609 61 31.0064V44.9945C61 45.34 60.7939 45.6497 60.4786 45.7764C58.821 46.4405 57.4883 47.7891 56.8236 49.4752C56.6996 49.792 56.3983 50 56.063 50ZM8.47241 48.3211H55.5293C56.3354 46.6288 57.6926 45.2534 59.3572 44.4438V31.5562C57.6935 30.7466 56.3354 29.3721 55.5293 27.6789H8.47241C7.66631 29.3712 6.30825 30.7466 4.64452 31.5562V44.4438C6.30825 45.2543 7.66631 46.6297 8.47241 48.3211Z" fill="#8A919D"/>
<path d="M32.0004 47C27.038 47 23 42.9631 23 38C23 33.0369 27.0371 29 32.0004 29C36.9629 29 41 33.0369 41 38C41 42.9631 36.962 47 32.0004 47ZM32.0004 30.6743C27.9424 30.6743 24.6405 33.9604 24.6405 38C24.6405 42.0396 27.9424 45.3257 32.0004 45.3257C36.0585 45.3257 39.3595 42.0396 39.3595 38C39.3595 33.9604 36.0576 30.6743 32.0004 30.6743Z" fill="#8A919D"/>
<path d="M31.6446 41.7308C29.7482 41.5824 29.4062 40.5661 29.4062 39.3891V39.1496H30.9827C30.9827 39.7779 31.0402 40.3717 31.6455 40.5202V38.2129L31.0746 38.007C29.9665 37.6076 29.5096 36.8415 29.5096 35.8138C29.5096 34.4202 30.2979 33.632 31.6455 33.4835V32.6953H32.3763V33.4835C34.0552 33.6205 34.4891 34.6261 34.4891 35.6423V35.8023H32.9126C32.9012 35.22 32.7642 34.8197 32.3763 34.6942V36.853L33.2785 37.2188C34.1233 37.5723 34.6835 38.0185 34.6835 39.2857C34.6835 40.9302 33.8838 41.6274 32.3763 41.7299V42.7241H31.6455V41.7308H31.6446ZM31.6446 34.6951C31.3017 34.7976 31.0852 35.0839 31.0852 35.5628C31.0852 35.9737 31.2567 36.2936 31.6446 36.5225V34.6951ZM32.3763 40.5202C32.8446 40.4177 33.039 40.0289 33.039 39.6065C33.039 39.0356 32.8101 38.7272 32.3763 38.4984V40.5202Z" fill="#8A919D"/>
</g>
<defs>
<clipPath id="clip0">
<rect width="70" height="70" fill="white"/>
</clipPath>
</defs>
</svg>
