<svg width="70" height="70" viewBox="0 0 70 70" fill="none" xmlns="http://www.w3.org/2000/svg">
<path d="M58.622 37.6575C58.622 33.063 50.5669 30.5945 43.0197 30.5236V27.5827C46.6338 26.4016 49.1968 24.4646 49.1968 21.8661V15.0866C49.1968 10.4567 41.0472 8 33.3819 8C25.7165 8 17.5669 10.5039 17.5669 15.0866V21.2756C13.6456 22.5984 11.3779 24.6417 11.3779 26.9921V33.7717C11.3779 38.3661 19.374 40.8583 26.9685 40.8583V44.4016C26.9778 45.0565 27.1524 45.6984 27.4764 46.2677C27.1505 46.8363 26.9757 47.4786 26.9685 48.1339V54.9134C26.9685 59.5433 35.1181 62 42.7834 62C50.4488 62 58.622 59.5669 58.622 54.937V48.1575C58.6142 47.5024 58.4394 46.86 58.1141 46.2913C58.4323 45.7325 58.6068 45.1034 58.622 44.4606V37.6575ZM56.2008 37.6102C56.2008 39.5472 51.1338 42.4291 42.7952 42.4291C39.2159 42.5238 35.6562 41.8721 32.3425 40.5157C38.1181 39.6535 42.9724 37.3622 42.9724 33.7598V32.8858C51.1693 32.8858 56.2008 35.6732 56.2008 37.6102ZM51.0984 43.7756V48.122C50.3057 48.35 49.5014 48.5353 48.6889 48.6772L48.7362 48.6654V44.2835C49.5393 44.1417 50.3307 43.9764 51.0984 43.7756ZM46.374 44.6142V49.0197C45.6299 49.0905 44.7913 49.185 43.9763 49.185L44.0118 49.1614V44.7677C44.7913 44.7677 45.5827 44.685 46.374 44.6142ZM41.6496 44.7677V49.185C40.7992 49.185 40.0197 49.0905 39.2756 49.0197L39.2874 49.0079V44.6142C40.0551 44.685 40.8346 44.7441 41.6496 44.7677ZM36.9252 44.3071V48.689C36.1284 48.5413 35.34 48.3521 34.563 48.122V48.1102V43.7992C35.3071 44 36.0866 44.1654 36.9252 44.3071ZM33.0748 38.0236V33.6299C33.9015 33.4882 34.6811 33.3228 35.437 33.122V37.4567C34.66 37.6867 33.8716 37.876 33.0748 38.0236ZM40.6929 30.878V33.7835C40.6929 34.6693 39.6771 35.7087 37.8346 36.5827V32.3661C38.8337 31.9842 39.7818 31.4805 40.6575 30.8661L40.6929 30.878ZM39.2874 26.1299V21.7244C40.0787 21.5827 40.9055 21.4173 41.6141 21.2165H41.6496V25.563C40.8726 25.793 40.0842 25.9823 39.2874 26.1299ZM46.811 21.8661C46.811 22.752 45.8071 23.7913 43.9527 24.6654V20.4606C44.9642 20.0813 45.9243 19.5775 46.811 18.9606V21.8661ZM33.3819 10.315C41.7086 10.315 46.8346 13.0906 46.8346 15.0394C46.8346 16.9882 41.7204 19.7638 33.3819 19.7638C25.0433 19.7638 19.9291 16.9882 19.9291 15.0394C19.9291 13.0906 25.0551 10.315 33.3819 10.315ZM36.9252 22.0315V26.437C36.1811 26.5197 35.4016 26.5669 34.563 26.5905V22.1968C35.3425 22.1732 36.1811 22.1142 36.9134 22.0197L36.9252 22.0315ZM32.2008 22.1968V26.5905C31.3858 26.5905 30.6063 26.5079 29.8386 26.437V22.0197C30.6259 22.1063 31.4134 22.1654 32.2008 22.1968ZM27.4764 21.7222V26.1063C26.6797 25.9585 25.8912 25.7692 25.1141 25.5394V21.2165C25.9015 21.4163 26.7235 21.5809 27.4764 21.7222ZM19.9173 18.9488C20.804 19.5656 21.7641 20.0695 22.7756 20.4488V24.6535C20.933 23.7677 19.9173 22.7402 19.9173 21.8543V18.9488ZM13.7401 33.7598V30.8661C14.6268 31.483 15.5869 31.9869 16.5984 32.3661L16.6102 36.5709C14.7677 35.685 13.7401 34.6457 13.7401 33.7598ZM21.3346 38.0236C20.5378 37.876 19.7494 37.6867 18.9724 37.4567V33.122C19.7283 33.3228 20.5079 33.4882 21.3346 33.6299V38.0236ZM26.059 38.5197C25.2441 38.5197 24.4645 38.437 23.6968 38.3661V33.937C24.4764 34.0197 25.2559 34.0669 26.059 34.0905V38.5197ZM27.2401 31.7756C18.9134 31.7756 13.7874 29 13.7874 27.0512C13.7874 25.8701 15.4291 24.5945 18.0393 23.6732C19.7992 27.2165 26.7913 29.0591 33.3937 29.0591C35.5896 29.0586 37.7807 28.849 39.937 28.4331C38.248 30.063 33.7126 31.7638 27.2047 31.7638L27.2401 31.7756ZM28.3504 38.5079V34.1024C29.1417 34.1024 29.9212 34.0197 30.7126 33.9488V38.3543C29.9685 38.437 29.189 38.4842 28.3504 38.5079ZM32.2008 43.0315H32.1653V47.2362C30.3228 46.3504 29.3071 45.3228 29.3071 44.437V41.5197C30.2043 42.1433 31.1765 42.6512 32.2008 43.0315ZM32.1653 57.7362C30.3228 56.8504 29.3071 55.8228 29.3071 54.937V52.0315C30.1938 52.6483 31.1539 53.1522 32.1653 53.5315V57.7362ZM36.8897 59.189C36.0929 59.0413 35.3046 58.8521 34.5275 58.622V54.2874C35.2834 54.4882 36.063 54.6535 36.8897 54.7953V59.189ZM41.6141 59.685C40.7992 59.685 40.0197 59.6024 39.2519 59.5315V55.0905C40.0315 55.1732 40.811 55.2205 41.6141 55.2441V59.685ZM29.3661 48.311C32.3425 50.437 37.6338 51.5591 42.7952 51.5591C47.9567 51.5591 53.248 50.378 56.2244 48.311C55.9764 50.2835 50.9212 52.9291 42.7952 52.9291C34.6693 52.9291 29.626 50.2953 29.3661 48.311ZM46.374 59.5079C45.6299 59.5787 44.8504 59.6378 44.0118 59.6614V55.2677C44.7913 55.2677 45.5827 55.185 46.374 55.1142V59.5079ZM51.0984 58.6102C50.3215 58.8405 49.533 59.0298 48.7362 59.1772V54.7953C49.5393 54.6535 50.3307 54.4882 51.0984 54.2874V58.6102ZM56.2598 54.937C56.2598 55.8228 55.2441 56.8622 53.4015 57.7362V53.5315C54.413 53.1522 55.3731 52.6483 56.2598 52.0315V54.937ZM56.2598 44.4606C56.2598 45.3465 55.2441 46.3858 53.4015 47.2598V43.0315C54.4136 42.6485 55.3737 42.1406 56.2598 41.5197V44.4606Z" fill="#8A919D"/>
</svg>
