<svg width="70" height="70" viewBox="0 0 70 70" fill="none" xmlns="http://www.w3.org/2000/svg">
<path d="M59.3401 17.7588L60.7988 16.681C59.4936 14.9153 58.0019 13.278 56.3644 11.8145L55.1562 13.1669C56.7013 14.5474 58.1091 16.0925 59.3401 17.7588Z" fill="#8A919D"/>
<path fill-rule="evenodd" clip-rule="evenodd" d="M59.2983 18.0378L59.1794 17.8769C57.9566 16.2216 56.558 14.6866 55.0231 13.3152L54.874 13.182L56.3487 11.5312L56.4978 11.6646C58.1455 13.1372 59.6464 14.7846 60.9598 16.5614L61.0787 16.7222L59.2983 18.0378ZM60.7984 16.6795C60.759 16.6262 60.7194 16.5729 60.6796 16.5198C59.443 14.8686 58.043 13.332 56.5132 11.9474C56.4638 11.9027 56.4142 11.8581 56.3645 11.8137L55.1564 13.1661C56.7004 14.5456 58.1073 16.0896 59.3377 17.7546C59.3386 17.7557 59.3394 17.7569 59.3403 17.758L60.7984 16.6795C60.7983 16.6793 60.7986 16.6798 60.7984 16.6795Z" fill="#8A919D"/>
<path d="M63.4318 20.8888L61.8247 21.7283C64.0553 26.0005 65.2341 30.8243 65.2341 35.6777C65.2341 52.3196 51.696 65.8587 35.0544 65.8606C18.4132 65.8587 4.87484 52.3196 4.87484 35.6776C4.87484 30.8239 6.05381 26.0002 8.28455 21.7281L6.67738 20.8887C4.3121 25.419 3.06152 30.5327 3.06152 35.6776C3.06152 53.318 17.4111 67.6701 35.0505 67.6737C35.0507 67.6737 35.0513 67.6737 35.0515 67.6737C35.0543 67.674 35.0559 67.674 35.0577 67.6737C35.058 67.6737 35.0582 67.6737 35.0585 67.6737C52.6982 67.6702 67.0472 53.318 67.0472 35.6776C67.047 30.5331 65.797 25.4194 63.4318 20.8888Z" fill="#8A919D"/>
<path d="M14.9521 13.1661L13.744 11.8145C12.1057 13.2788 10.614 14.9159 9.30957 16.6808L10.768 17.7586C11.9986 16.0928 13.4062 14.5479 14.9521 13.1661Z" fill="#8A919D"/>
<path fill-rule="evenodd" clip-rule="evenodd" d="M15.235 13.1811L15.0858 13.3144C13.5501 14.6871 12.1518 16.2218 10.9293 17.8766L10.8104 18.0375L9.03027 16.7219L9.14916 16.5611C10.4617 14.7852 11.9626 13.138 13.6111 11.6645L13.7603 11.5312L15.235 13.1811ZM13.7436 11.8144C13.6942 11.8586 13.6449 11.9029 13.5957 11.9474C12.0653 13.3326 10.6653 14.8691 9.42938 16.5195C9.38941 16.5729 9.34962 16.6263 9.31 16.68L10.7684 17.7578C10.7705 17.755 10.7725 17.7523 10.7745 17.7495C12.0037 16.0869 13.4091 14.5448 14.9525 13.1653C14.9525 13.1653 14.9525 13.1653 14.9525 13.1653L13.7444 11.8136C13.7442 11.8139 13.7439 11.8141 13.7436 11.8144Z" fill="#8A919D"/>
<path d="M27.3521 15.5918H25.5391V27.7834H27.3521V15.5918Z" fill="#8A919D"/>
<path fill-rule="evenodd" clip-rule="evenodd" d="M25.3389 15.3926H27.5519V27.9841H25.3389V15.3926ZM27.3519 15.5926V27.7841H25.5389V15.5926H27.3519Z" fill="#8A919D"/>
<path d="M44.9996 15.5918H43.1865V27.7834H44.9996V15.5918Z" fill="#8A919D"/>
<path fill-rule="evenodd" clip-rule="evenodd" d="M42.9863 15.3926H45.1994V27.9841H42.9863V15.3926ZM44.9994 15.5926V27.7841H43.1863V15.5926H44.9994Z" fill="#8A919D"/>
<path d="M42.2778 13.7337H43.1383V13.6883H45.0424V13.7337H45.9069C46.2683 13.7337 46.5952 13.5189 46.7392 13.1869C46.8824 12.8551 46.8148 12.4699 46.5672 12.2063L44.7896 10.3149C44.6205 10.1351 44.3852 10.0322 44.1383 10.0293C44.1353 10.0293 44.1318 10.0293 44.1291 10.0293C43.8854 10.0293 43.6517 10.1273 43.4813 10.3018L41.63 12.1929C41.3747 12.4536 41.3005 12.8421 41.4419 13.1786C41.5833 13.5151 41.9127 13.7337 42.2778 13.7337Z" fill="#8A919D"/>
<path d="M36.3092 7.98047H34.4961V27.7757H36.3092V7.98047Z" fill="#8A919D"/>
<path fill-rule="evenodd" clip-rule="evenodd" d="M34.2959 7.7793H36.509V27.9746H34.2959V7.7793ZM36.309 7.9793V27.7746H34.4959V7.9793H36.309Z" fill="#8A919D"/>
<path d="M43.4853 47.5147C42.1783 46.2077 40.6226 45.2402 38.9253 44.6545C40.7432 43.4024 41.9375 41.3069 41.9375 38.9375C41.9375 35.1122 38.8253 32 35 32C31.1747 32 28.0625 35.1122 28.0625 38.9375C28.0625 41.3069 29.2568 43.4024 31.0748 44.6545C29.3774 45.2402 27.8218 46.2077 26.5147 47.5147C24.2482 49.7812 23 52.7947 23 56H24.875C24.875 50.417 29.417 45.875 35 45.875C40.583 45.875 45.125 50.417 45.125 56H47C47 52.7947 45.7518 49.7812 43.4853 47.5147ZM35 44C32.2085 44 29.9375 41.729 29.9375 38.9375C29.9375 36.146 32.2085 33.875 35 33.875C37.7915 33.875 40.0625 36.146 40.0625 38.9375C40.0625 41.729 37.7915 44 35 44Z" fill="#8A919D"/>
<path d="M33.5882 6.11027H34.4484V6.07611H36.3523V6.11027H37.2173C37.5789 6.11027 37.9058 5.89545 38.0496 5.56343C38.1931 5.23167 38.1253 4.84617 37.8776 4.58286L36.0997 2.69189C35.9306 2.51176 35.6953 2.40888 35.4484 2.40625C35.4454 2.40625 35.4423 2.40625 35.4392 2.40625C35.1955 2.40625 34.9619 2.50427 34.7915 2.67849L32.9405 4.56959C32.6852 4.83053 32.6112 5.21879 32.7523 5.55528C32.8938 5.89164 33.2232 6.11027 33.5882 6.11027Z" fill="#8A919D"/>
<path d="M24.5892 14.1103H25.4494V14.0761H27.3533V14.1103H28.2183C28.5799 14.1103 28.9068 13.8955 29.0505 13.5634C29.194 13.2317 29.1262 12.8462 28.8786 12.5829L27.1007 10.6919C26.9316 10.5118 26.6963 10.4089 26.4494 10.4062C26.4464 10.4062 26.4432 10.4062 26.4402 10.4062C26.1965 10.4062 25.9629 10.5043 25.7925 10.6785L23.9414 12.5696C23.6862 12.8305 23.6122 13.2188 23.7533 13.5553C23.8948 13.8916 24.2242 14.1103 24.5892 14.1103Z" fill="#8A919D"/>
</svg>
