<svg width="70" height="70" viewBox="0 0 70 70" fill="none" xmlns="http://www.w3.org/2000/svg">
<path d="M68.2071 24.6653C65.5702 19.2682 59.9598 15.7877 51.1114 14.076C51.0238 13.6191 50.7181 13.0359 49.8345 12.5607C49.2775 12.2619 48.6026 12.0672 47.9331 12.0148C47.2613 11.9623 46.5662 12.0505 45.9766 12.2627C45.2706 12.517 44.8804 12.8841 44.6671 13.2361C44.0279 13.2012 43.3964 13.1829 42.7796 13.1829C30.531 13.1829 24.2853 20.0294 21.2024 25.773C18.3925 31.008 17.6757 36.1858 17.5159 37.7441C15.8837 38.445 12.5665 39.7553 9.61936 40.9186C7.55581 41.7331 5.6063 42.5031 4.59625 42.9219C2.19136 43.9208 0.461394 45.6554 0.0812667 47.4513C-0.124312 48.4239 0.0634238 49.3592 0.607239 50.1363C0.708089 50.4844 0.890395 50.8014 1.15183 51.0629C2.26739 52.177 4.32318 51.8265 5.15558 51.6239L5.24246 51.5993C5.44494 51.5373 10.0639 50.0871 12.8287 48.4239C14.9792 49.3322 17.0846 50.7554 19.2645 52.2286C23.2954 54.9518 27.8057 58 33.3602 58C34.0429 58 34.7427 57.9531 35.4587 57.8554L35.5254 57.8435C47.57 55.5939 53.9763 49.4395 55.7544 47.4807C57.2012 47.5578 58.7644 47.607 60.2795 47.607C62.319 47.607 64 47.5196 65.2746 47.3472C67.3553 47.0667 68.3785 46.5661 68.8067 45.6149L68.92 45.3646L68.937 45.0889C69.0185 43.8278 69.1915 42.4427 69.3754 40.9766C70.027 35.7861 70.764 29.9003 68.2071 24.6653ZM48.6825 13.6605C48.629 13.6525 48.5739 13.6454 48.5211 13.6374C48.5522 13.6096 48.5863 13.5834 48.6243 13.5603L48.6825 13.6605ZM46.968 13.4165C46.9742 13.4221 46.9781 13.4276 46.9843 13.4332C46.975 13.4324 46.9657 13.4308 46.9556 13.43L46.968 13.4165ZM4.43877 48.7378C4.19052 48.7958 3.95081 48.8316 3.7398 48.849C4.53031 47.5594 6.11055 47.3019 7.25093 47.3019C7.64813 47.3019 7.99179 47.3329 8.22995 47.3631C6.42784 48.0981 4.73046 48.6456 4.43877 48.7378ZM11.9948 48.1013C12.1274 48.149 12.2601 48.1974 12.3927 48.2491C12.257 48.2213 12.122 48.1712 11.9948 48.1013ZM35.0375 54.9097C29.597 55.6439 25.3551 52.7777 20.8641 49.7438C17.2025 47.2693 13.416 44.7114 9.02822 44.473C8.9553 44.4587 8.87927 44.446 8.8017 44.4333C9.39438 44.1989 10.0235 43.9509 10.6628 43.6975C13.8108 42.4555 17.3778 41.0466 18.9364 40.3616C19.3079 40.1987 19.5965 39.9675 19.8153 39.7092C19.8223 39.7092 19.8277 39.7092 19.8347 39.7092C25.6103 39.7092 49.8004 46.8204 50.0432 46.8919L50.1355 46.9157C50.5148 47.0007 51.1044 47.0889 51.8383 47.1716C49.0804 49.5626 43.6043 53.3022 35.0375 54.9097ZM66.4918 40.6C66.3367 41.842 66.1877 43.03 66.0908 44.1631C65.5012 44.3371 63.9628 44.6304 60.2795 44.6304C56.2152 44.6304 51.9942 44.2696 50.7996 44.0161C49.2961 43.5735 27.6335 37.2276 20.5818 36.758C20.9138 34.6832 21.747 30.9381 23.7492 27.2081C27.6839 19.8776 34.0864 16.1612 42.7789 16.1612C44.2102 16.1612 45.7221 16.2645 47.2737 16.4687C69.1535 19.3492 67.7393 30.6393 66.4918 40.6Z" fill="#8A919D"/>
</svg>
