<svg width="70" height="70" viewBox="0 0 70 70" fill="none" xmlns="http://www.w3.org/2000/svg">
<path d="M69.5763 25.4368C63.2087 23.8192 57.4204 23 52.3726 23C47.2575 23 43.9718 23.8176 41.7965 24.3576C41.1963 24.5077 40.6796 24.636 40.2568 24.7115C37.2791 25.2475 35.7683 25.4007 35.5709 25.42H34.4283C34.2309 25.4015 32.7209 25.2475 29.7432 24.7115C29.3204 24.6352 28.8029 24.5069 28.2035 24.3576C26.029 23.8168 22.7425 23 17.6274 23C12.5788 23 6.7913 23.8192 0.422852 25.4368L0 25.5443L0.101099 29.76L0.11153 30.0994L0.41884 30.2438C0.49667 30.2791 2.32929 31.1618 2.84843 33.7013C3.02094 34.5454 4.57835 41.9906 6.1157 43.613C6.959 44.5037 9.5274 47.2141 16.4599 47.2141C17.4886 47.2141 18.5894 47.1555 19.732 47.0392C23.5489 46.6484 26.963 44.3632 29.6036 40.43C31.5743 37.4941 32.4159 34.7123 32.4513 34.5951L32.4705 34.5309L32.4729 34.4651C32.4777 34.36 32.6165 31.9328 34.4588 31.5333H35.542C37.3843 31.9328 37.5223 34.36 37.5271 34.4635L37.5303 34.5309L37.5495 34.5951C37.584 34.7123 38.4273 37.4941 40.3972 40.43C43.0378 44.3632 46.4511 46.6484 50.2688 47.0392C51.4106 47.1555 52.5114 47.2141 53.5409 47.2141C60.4726 47.2141 63.041 44.5037 63.8851 43.613C65.4224 41.9914 66.9791 34.5454 67.1516 33.7013C67.6707 31.1618 69.5041 30.2791 69.5788 30.2446L69.8909 30.1026L70 25.5443L69.5763 25.4368ZM68.8125 29.419C68.1385 29.8306 66.5819 31.0213 66.0796 33.4814C65.2724 37.4259 63.987 41.9136 63.0899 42.8596C62.5981 43.3787 61.6224 44.3985 59.6221 45.16C58.1898 45.7056 56.2361 46.1196 53.5393 46.1196C52.5475 46.1196 51.4836 46.0627 50.3787 45.9495C42.2426 45.1175 38.8831 35.1784 38.6135 34.3376C38.5742 33.8152 38.2412 30.9427 35.7001 30.4476L34.4026 30.438L34.2983 30.4476C31.7572 30.9419 31.4242 33.816 31.3849 34.3376C31.1169 35.1793 27.7686 45.1175 19.6197 45.9503C18.5148 46.0635 17.4517 46.1204 16.4599 46.1204C9.99759 46.1204 7.75415 43.7518 6.90925 42.8604C6.0122 41.9136 4.72679 37.4267 3.9196 33.4822C3.41651 31.0229 1.8599 29.8314 1.18591 29.4198L1.11289 26.3916C7.22699 24.8671 12.7802 24.0944 17.6266 24.0944C22.6077 24.0944 25.8164 24.892 27.9387 25.42C28.5573 25.574 29.0909 25.7056 29.5483 25.7891C32.7939 26.374 34.2927 26.508 34.3553 26.512L35.5958 26.5144L35.6431 26.512C35.7049 26.5072 37.2045 26.3732 40.4493 25.7891C40.9067 25.7056 41.4411 25.574 42.0597 25.42C44.1828 24.8928 47.3915 24.0944 52.3718 24.0944C56.9638 24.0944 62.1969 24.7965 67.9331 26.1662C68.2508 26.2424 68.5637 26.3122 68.8847 26.3916L68.8125 29.419Z" fill="#8A919D"/>
<path d="M53.6057 25.5332C50.4813 25.5332 47.3335 25.9769 45.5868 26.3564C41.3743 27.272 40.649 29.5443 40.5912 30.8168C40.5455 31.8238 41.1882 34.8953 41.2588 35.2283C42.8491 43.8394 49.3788 45.1256 53.1299 45.1256C55.9422 45.1256 58.4127 44.4372 59.6741 43.8474C63.4533 42.0806 63.5945 38.2982 63.852 31.4323C63.9026 30.0787 63.483 28.9297 62.6027 28.0157C61.0148 26.3685 57.9875 25.5332 53.6057 25.5332ZM59.2103 42.8573C58.822 43.0394 58.3165 43.2184 57.7436 43.3836C56.471 43.7495 54.8285 44.0328 53.1299 44.0328C48.9632 44.0328 43.7076 42.4713 42.3307 35.0165C42.1398 34.1114 41.6503 31.6016 41.684 30.8666C41.7603 29.1864 43.1901 27.9973 45.8195 27.4252C47.5125 27.0569 50.5687 26.6268 53.6065 26.6268C55.5715 26.6268 57.2501 26.8082 58.6157 27.154C60.0408 27.5151 61.124 28.0575 61.8156 28.7756C62.4912 29.4769 62.8001 30.3322 62.76 31.3929C62.4928 38.4916 62.2633 41.4299 59.2103 42.8573Z" fill="#8A919D"/>
<path d="M24.413 26.3564C22.6662 25.9761 19.5177 25.5332 16.3933 25.5332C12.0115 25.5332 8.98414 26.3685 7.39705 28.0166C6.51684 28.9305 6.0964 30.0795 6.14775 31.4331C6.40531 38.299 6.54653 42.0814 10.3257 43.8482C11.587 44.4372 14.0568 45.1264 16.8707 45.1264C16.8707 45.1264 16.8707 45.1264 16.8715 45.1264C20.6226 45.1264 27.1515 43.8394 28.7386 35.2435C28.8116 34.8961 29.4551 31.8246 29.4086 30.8176C29.35 29.5443 28.6239 27.272 24.413 26.3564ZM27.6658 35.0301C26.6885 40.321 23.7486 42.6318 20.633 43.5297C19.3677 43.8948 18.0743 44.0328 16.8699 44.0328C14.405 44.0328 12.0388 43.4422 10.7879 42.8573C7.73565 41.4307 7.50617 38.4924 7.23978 31.3921C7.20046 30.3322 7.50858 29.4761 8.18418 28.7748C9.53778 27.369 12.3766 26.626 16.3925 26.626C19.3364 26.626 22.2859 27.0296 24.0078 27.3899C24.0624 27.4019 24.1274 27.4132 24.1795 27.4244C26.8081 27.9965 28.2387 29.1856 28.315 30.8666C28.3487 31.6008 27.86 34.1106 27.6658 35.0301Z" fill="#8A919D"/>
</svg>
