<svg width="70" height="70" viewBox="0 0 70 70" fill="none" xmlns="http://www.w3.org/2000/svg">
<path d="M64.9365 42.752C63.9446 38.2009 60.3271 32.7747 55.0176 27.5818C56.8263 26.6482 58.3433 25.3063 59.4519 23.5558C61.2023 20.8719 61.7275 17.5461 61.0273 14.162C60.0938 9.78598 57.1764 5.76004 52.9754 3.07608C45.2736 -1.88341 35.7047 -0.716471 31.5621 5.64334C30.4535 7.3354 29.87 9.26085 29.695 11.303C18.6091 7.04367 9.21523 7.16036 5.88946 12.2949C4.66417 14.162 4.37244 16.4375 4.95591 19.1215C6.12285 24.6061 11.0823 31.2576 18.259 37.3841C17.1504 38.2593 15.8668 38.9594 14.4665 39.4846C10.7323 40.8265 7.63987 43.5105 5.77277 47.0697C2.3303 53.6045 4.02236 61.7731 9.7987 66.4408C12.6577 68.7747 16.2169 70 19.8344 70C20.6512 70 21.4681 69.9417 22.2849 69.825C26.7193 69.1248 30.6286 66.5575 33.0791 62.8233C35.0046 59.8476 35.8798 56.3468 35.5297 52.846C35.413 51.3873 35.5297 49.987 35.8214 48.7034C42.7064 51.9125 49.1829 53.6045 54.2591 53.6045C58.7518 53.6045 62.1942 52.3209 63.9446 49.5786C65.1699 47.7698 65.52 45.4359 64.9365 42.752ZM36.8717 46.0194C37.2218 45.3776 37.6302 44.7358 38.1553 44.1523L38.7971 43.3938C40.4308 41.4684 41.131 38.9594 40.7809 36.5089C40.4308 34 38.9722 31.8411 36.8717 30.4408L34.5961 29.0405C32.4957 27.6985 29.87 27.2901 27.4778 27.9902C25.0856 28.6904 23.0435 30.3824 21.9932 32.658L21.7015 33.2998C21.3514 34.0583 20.8846 34.7585 20.3595 35.4003C13.5913 29.6823 8.86515 23.4392 7.81491 18.538C7.40648 16.6709 7.58152 15.0955 8.34003 13.8703C9.50697 12.0615 12.0742 11.128 15.6334 11.128C21.9349 11.128 31.3871 14.1036 41.5978 20.6385C52.392 27.5818 60.6189 36.6839 62.0775 43.2771C62.486 45.1442 62.3109 46.7196 61.5524 47.9449C58.9268 52.0292 49.0078 51.7958 36.8717 46.0194ZM32.6123 53.1377C32.9041 55.9967 32.2039 58.7974 30.6286 61.248C28.6448 64.282 25.4357 66.3825 21.8182 66.966C18.1423 67.5494 14.5248 66.5575 11.6075 64.2237C6.9397 60.4311 5.53938 53.7796 8.34003 48.47C9.85705 45.5526 12.366 43.3938 15.4584 42.2852C19.4259 40.8849 22.5767 38.1426 24.3271 34.5251L24.6188 33.8833C25.319 32.3662 26.661 31.2576 28.2947 30.7909C28.8198 30.6158 29.3449 30.5575 29.9284 30.5575C31.037 30.5575 32.1456 30.8492 33.0791 31.491L35.2963 32.8914C36.6966 33.7666 37.6302 35.2836 37.9219 36.9173C38.1553 38.551 37.6885 40.2431 36.5799 41.5267L35.9381 42.2852C33.3709 45.2026 32.2039 49.0535 32.6123 53.1377ZM43.2315 18.1879C41.7728 17.2544 40.7226 15.8541 40.4308 14.3954C40.2558 13.6952 40.1974 12.645 40.8393 11.6531C41.5394 10.5445 42.8231 10.0194 44.2817 10.0194C45.4487 10.0194 46.674 10.3694 47.8409 11.128C49.2996 12.0615 50.3498 13.4618 50.6415 14.9205C50.8166 15.6207 50.8749 16.6709 50.2331 17.6628C48.9495 19.5883 45.7988 19.88 43.2315 18.1879ZM34.0127 7.27706C35.8798 4.41806 39.1472 2.95938 42.8814 2.95938C45.6821 2.95938 48.7161 3.83459 51.4584 5.585C54.9592 7.86053 57.4681 11.1863 58.2266 14.8038C58.8101 17.4878 58.4017 19.9383 57.0597 22.0388C56.0095 23.6142 54.5508 24.7811 52.8004 25.4813C51.4584 24.3144 50.0581 23.1474 48.5994 21.9805C50.2915 21.5721 51.8085 20.6385 52.742 19.1798C53.6756 17.7795 53.9673 15.9707 53.5589 14.2203C53.0921 12.0032 51.5751 9.96102 49.4746 8.56069C45.5654 6.05177 40.6059 6.69359 38.447 10.0194C37.5135 11.4197 37.2218 13.1701 37.5718 14.9205C35.9381 14.0453 34.2461 13.2284 32.6123 12.5283C32.554 10.6028 33.0208 8.85242 34.0127 7.27706Z" fill="#8A919D"/>
</svg>
