<svg width="70" height="70" viewBox="0 0 70 70" fill="none" xmlns="http://www.w3.org/2000/svg">
<g clip-path="url(#clip0)">
<path d="M55.7446 57.514H69.4492L69.4803 56.8193L69.4967 55.9604L69.4967 55.956H69.4968C69.5021 55.7669 69.5 55.5826 69.4977 55.3858C69.4966 55.2878 69.4954 55.1867 69.4951 55.0803L69.4903 54.6337L69.4746 54.1819L69.4745 54.1812L69.4577 53.7211L69.4577 53.7204L69.4533 53.6055L69.4533 53.6054L69.4511 53.5486L69.4511 53.5474L69.4506 53.5341L69.4503 53.5268L69.4502 53.5195L69.4489 53.4058L69.4479 53.3925L69.4479 53.3924L69.4331 53.2008L69.4331 53.2004L69.3732 52.4298L69.3732 52.4294L69.3582 52.238L69.3357 51.9903L69.3355 51.9884L69.2882 51.4883L69.288 51.4865L69.2391 50.9891L69.2389 50.9873L69.2146 50.7474L69.1855 50.5279C69.1854 50.5275 69.1853 50.527 69.1853 50.5266C69.1701 50.417 69.1554 50.3086 69.1408 50.2013C69.0733 49.7053 69.009 49.2322 68.9234 48.7732L68.9225 48.7683L68.9225 48.7683C68.9065 48.6775 68.8912 48.5888 68.8761 48.5015C68.8425 48.3074 68.8103 48.1207 68.7749 47.9349L68.608 47.135L68.6069 47.1298L68.607 47.1298C68.5313 46.7468 68.442 46.3871 68.3545 46.0344C68.3258 45.9187 68.2973 45.8038 68.2695 45.689C68.2693 45.6886 68.2692 45.6881 68.2691 45.6876L68.1893 45.3661L68.1045 45.0607L68.1038 45.0585L67.9415 44.4845C67.9414 44.4841 67.9413 44.4836 67.9411 44.4832C67.9221 44.417 67.9046 44.3552 67.888 44.2965C67.8566 44.1857 67.8284 44.0858 67.7982 43.988L67.663 43.564L67.6626 43.5627L67.5505 43.2147L55.9625 46.517L55.9833 46.6291L55.9836 46.6303L56.0391 46.9224L56.0401 46.9276L56.04 46.9276C56.0534 47.0021 56.0663 47.0901 56.0782 47.1712C56.0843 47.2129 56.0901 47.2527 56.0956 47.288L56.0959 47.2895L56.1564 47.6862L56.1566 47.688C56.1591 47.7046 56.1624 47.7254 56.166 47.7485C56.1738 47.7981 56.1833 47.8583 56.1902 47.911L56.1913 47.9194L56.1912 47.9194L56.2169 48.1452L56.2174 48.1491L56.2174 48.1491C56.2263 48.2322 56.2372 48.3228 56.2487 48.4188C56.276 48.6455 56.3069 48.902 56.323 49.1594L56.3675 49.6966L56.3684 49.707L56.3682 49.707C56.3752 49.8199 56.3806 49.9435 56.3857 50.0623C56.3889 50.1369 56.3921 50.2096 56.3955 50.2766C56.3955 50.2778 56.3956 50.2791 56.3957 50.2803L55.8963 50.3059C55.9147 50.5807 55.9174 50.8636 55.9202 51.1501C55.9213 51.264 55.9224 51.3786 55.9245 51.4934L55.7446 57.514ZM55.7446 57.514L55.8016 57.267C55.8018 57.2666 55.8019 57.2661 55.802 57.2657C55.8251 57.1677 55.8477 57.0532 55.8682 56.9491C55.8793 56.8925 55.8899 56.8389 55.8996 56.7927L55.8996 56.7927L55.9005 56.7882C55.9067 56.7572 55.9134 56.7248 55.9203 56.6912C55.9463 56.5641 55.9758 56.4201 55.9988 56.2745L56.0899 55.7505L56.0911 55.7434L56.0922 55.7362L56.1718 55.1858C56.1928 55.0572 56.2093 54.91 56.2238 54.7796C56.2313 54.7124 56.2383 54.6497 56.2452 54.5962L56.2452 54.5962L56.2457 54.5923C56.2562 54.5052 56.2667 54.4175 56.2771 54.3298L56.2811 54.2966L56.282 54.2886L56.2827 54.2806L56.3087 53.983L56.3089 53.9817L56.3299 53.7493C56.3339 53.7435 56.3376 53.7375 56.3412 53.7314C56.3456 53.7062 56.3495 53.6721 56.3501 53.6633C56.3508 53.6527 56.3509 53.644 56.351 53.6431L56.351 53.6431L56.351 53.6428L56.3519 53.6231L56.352 53.6214L56.3601 53.4289C56.3601 53.4289 56.3601 53.4289 56.3601 53.4288C56.3637 53.3456 56.3673 53.2621 56.3708 53.1786C56.3783 53.0046 56.3858 52.8302 56.3931 52.6558L56.4013 52.464L56.4014 52.4641L56.4016 52.4534L56.4043 52.3234L56.4044 52.3203L56.4114 52.0601L56.4115 52.0564L56.4205 51.7965L56.4206 51.7936L55.7446 57.514ZM55.8428 46.5511L55.8429 46.5511C55.8428 46.5511 55.8429 46.5511 55.8428 46.5511Z" fill="#8A919D" stroke="#8A919D"/>
<path d="M49.0807 33.0373L48.8306 32.7729C48.7747 32.7138 48.7081 32.6488 48.6575 32.5993C48.6352 32.5776 48.616 32.5589 48.6023 32.545L48.5998 32.5425L48.5054 32.4492L54.6938 24.9585L54.9685 25.1693C55.0113 25.2028 55.0515 25.2335 55.091 25.2637C55.1606 25.317 55.2279 25.3686 55.3038 25.4305C55.304 25.4306 55.3042 25.4308 55.3043 25.4309L55.7015 25.7566L55.7024 25.7574L56.1495 26.1258L56.6327 26.5482C56.697 26.6055 56.7584 26.6591 56.8184 26.7114C56.9308 26.8094 57.0381 26.903 57.1502 27.0087L57.1513 27.0098L57.7056 27.5286L57.7056 27.5286L57.7093 27.532C57.8736 27.6828 58.0354 27.8445 58.2099 28.0189C58.2289 28.0378 58.248 28.057 58.2673 28.0763C58.3374 28.1471 58.4053 28.2146 58.472 28.2809C58.5996 28.4077 58.7227 28.5301 58.8475 28.6625C58.8476 28.6626 58.8477 28.6627 58.8478 28.6628L59.441 29.2946L59.441 29.2946L59.4437 29.2975C59.538 29.3962 59.6309 29.5 59.7258 29.6088L59.7275 29.6107L60.0225 29.9457L60.0232 29.9465L60.3191 30.2836C60.3193 30.2839 60.3195 30.2841 60.3197 30.2843C60.3806 30.3542 60.4357 30.4212 60.4957 30.4941C60.5289 30.5345 60.5635 30.5767 60.6015 30.6221C60.6617 30.6955 60.7212 30.7673 60.78 30.8385C60.913 30.9994 61.043 31.1565 61.1716 31.3182L61.727 32.0372L61.7279 32.0382L61.8617 32.2125L61.9906 32.3901L61.9911 32.3908L62.2556 32.7566L62.2555 32.7566L62.2591 32.7614C62.5173 33.1099 62.753 33.4618 62.9917 33.8181C63.0752 33.9427 63.159 34.0678 63.2442 34.1935L63.6889 34.8997L63.69 34.9015L63.9025 35.242L64.101 35.5802L64.1016 35.5812L64.4858 36.2395C64.5667 36.3843 64.6428 36.5247 64.7187 36.6649C64.7539 36.7299 64.7891 36.7948 64.8247 36.86C64.8249 36.8604 64.825 36.8607 64.8252 36.861L64.9837 37.1536C64.984 37.1542 64.9843 37.1548 64.9846 37.1554C65.0061 37.1957 65.0245 37.2295 65.0413 37.2604C65.0733 37.319 65.0994 37.367 65.1295 37.4291L65.1295 37.4291L65.1318 37.4337L65.4175 38.0088L65.4185 38.0108L65.6662 38.5151C65.7254 38.6401 65.78 38.7549 65.8294 38.8587C65.8294 38.8588 65.8294 38.8588 65.8295 38.8589L65.9057 39.0199L55.1618 43.3364L55.105 43.1661L55.1048 43.1657L54.9889 42.8197L54.9889 42.8196L54.9865 42.8127L54.8837 42.5207L54.8823 42.5167L54.7699 42.188C54.7509 42.1281 54.7183 42.0464 54.6993 41.9988C54.6937 41.9848 54.6892 41.9737 54.6867 41.967L54.6867 41.967L54.6849 41.9622L54.6008 41.7478L54.6005 41.7472L54.422 41.2911L54.4189 41.2834L54.4157 41.2758L54.2093 40.7953L54.2086 40.7936L54.1017 40.5424L54.0983 40.5343L54.0945 40.5263L53.9761 40.2728L53.9757 40.2721L53.7308 39.7458L53.726 39.7356L53.7208 39.7257C53.6661 39.6208 53.6089 39.5069 53.5492 39.3882C53.4265 39.1442 53.2936 38.8799 53.1522 38.6322L53.0048 38.3626L53.0042 38.3615L52.9296 38.2243L52.9251 38.2162L52.9204 38.2082L52.8408 38.0739L52.8401 38.0728L52.5188 37.5279L52.5189 37.5278L52.5148 37.5211C52.4481 37.412 52.3737 37.2955 52.3028 37.1845C52.2572 37.113 52.213 37.0438 52.1733 36.9803L52.1733 36.9803L52.17 36.9751C52.1561 36.9535 52.1394 36.9268 52.1209 36.8975C52.0817 36.8349 52.0349 36.7603 51.9924 36.6978L51.9922 36.6976L51.8156 36.439L51.8148 36.4378L51.6413 36.1824C51.5828 36.0946 51.5194 36.002 51.4506 35.9107L51.0961 35.4242C51.0961 35.4241 51.096 35.424 51.0959 35.4239C51.0185 35.3173 50.9287 35.2031 50.8483 35.101C50.8049 35.0459 50.7643 34.9942 50.7299 34.9492L50.7299 34.9492L50.7273 34.9459C50.7093 34.9228 50.6911 34.8992 50.6726 34.8753C50.5757 34.7502 50.471 34.615 50.3626 34.4892L50.0253 34.0837C49.9506 33.9923 49.8611 33.8929 49.786 33.8093C49.7484 33.7675 49.7143 33.7296 49.6875 33.6987L49.6875 33.6987L49.6839 33.6947L49.3782 33.3505L49.3727 33.3442L49.3669 33.3381L49.0818 33.0384L49.0807 33.0373ZM65.968 39.1514C65.9679 39.1513 65.9679 39.1512 65.9678 39.1511L65.9679 39.1514L65.968 39.1514Z" fill="#8A919D" stroke="#8A919D"/>
<path d="M44.9487 29.4953L44.9399 29.4889L44.9309 29.4829L44.5443 29.2265L44.5443 29.2265L44.5397 29.2235C44.5035 29.2001 44.4616 29.1807 44.4536 29.1771L44.4525 29.1765C44.4332 29.1675 44.4093 29.1567 44.3825 29.1447C44.3283 29.1206 44.2538 29.0881 44.1621 29.0486C43.9783 28.9694 43.7199 28.8597 43.4056 28.7271C42.7766 28.4617 41.92 28.1036 40.9796 27.7132C39.0998 26.9329 36.8804 26.0219 35.4725 25.4654C35.4038 25.4383 35.336 25.4174 35.2664 25.4011L33.6622 25.0245C33.6187 25.0143 33.5745 25.0072 33.5301 25.0034L33.9364 18.0965C33.9534 17.8077 34.2111 17.5936 34.498 17.6297L39.0549 18.2041C39.1074 18.2107 39.1582 18.2211 39.2126 18.2363C39.6326 18.3536 41.161 18.7721 42.6837 19.189L43.0413 19.2869C43.8588 19.5108 44.6498 19.7274 45.2403 19.8896C45.5356 19.9706 45.7805 20.038 45.9533 20.0858C46.0399 20.1098 46.1079 20.1287 46.155 20.1419C46.191 20.152 46.2059 20.1564 46.2085 20.157C46.3697 20.218 46.52 20.2814 46.6777 20.3478C46.7632 20.3838 46.8508 20.4208 46.9435 20.4587C46.99 20.4783 47.0357 20.4973 47.0806 20.5161C47.2832 20.6007 47.4701 20.6788 47.6498 20.7636L47.6498 20.7636L47.6549 20.766L48.3382 21.0791L48.3382 21.0791L48.3412 21.0805C48.4789 21.1425 48.6018 21.2044 48.7318 21.2698C48.8031 21.3058 48.8766 21.3428 48.9559 21.3815C48.9567 21.3819 48.9575 21.3823 48.9583 21.3827L49.5251 21.6667L50.0639 21.9604L50.0659 21.9615L50.5435 22.2246L50.7235 22.3264L50.726 22.3278L50.8783 22.4152L50.8783 22.4152L51.0336 22.5043L45.9591 30.234L45.8156 30.127L45.8155 30.1268L45.6728 30.0203L45.6719 30.0196C45.6641 30.0138 45.6549 30.0069 45.6448 29.9994C45.6059 29.9703 45.5541 29.9316 45.5173 29.906L45.2545 29.7178L45.2514 29.7156L44.9487 29.4953ZM51.16 22.5768C51.1599 22.5768 51.1599 22.5768 51.1599 22.5767L51.16 22.5768ZM51.113 22.3832C51.1131 22.3831 51.1132 22.3829 51.1133 22.3828L51.1132 22.383L51.113 22.3832Z" fill="#8A919D" stroke="#8A919D"/>
<path d="M30.1376 25.4395L30.4624 25.4377L30.1376 25.4395ZM30.1376 25.4395L29.7673 25.4419L30.1376 25.4395ZM26.787 25.1608L26.7841 25.1612L26.1653 25.2467L26.1567 25.2479L26.1482 25.2494L25.5109 25.36L25.5109 25.36L25.5078 25.3605C25.4782 25.3658 25.4434 25.3718 25.4061 25.3781C25.3321 25.3908 25.2478 25.4052 25.1732 25.4201L25.1731 25.42L25.1672 25.4213L24.8417 25.4904L24.8407 25.4906L24.514 25.5594L24.5119 25.5598L24.5039 25.5614C24.3998 25.5829 24.2801 25.6075 24.16 25.6393L23.5013 25.8023L23.5013 25.8023L23.4978 25.8032C23.3538 25.8399 23.2007 25.8841 23.0573 25.9254C22.9772 25.9485 22.9002 25.9707 22.8296 25.9902L22.8296 25.9902L22.8242 25.9918C22.7912 26.0013 22.7543 26.0117 22.7155 26.0226C22.6423 26.0432 22.5625 26.0656 22.4898 26.0877L22.4898 26.0876L22.4811 26.0904L22.1593 26.1945L22.1587 26.1947L21.8397 26.2974C21.8394 26.2974 21.8392 26.2975 21.8389 26.2976C21.829 26.3008 21.819 26.304 21.8087 26.3072C21.7154 26.3369 21.6078 26.3712 21.502 26.4112L20.8919 26.6311C20.8914 26.6313 20.8909 26.6315 20.8904 26.6316C20.7528 26.6803 20.6049 26.7402 20.4732 26.7936C20.4053 26.8211 20.3416 26.8469 20.2861 26.8684L20.2861 26.8684L20.2806 26.8706C20.2431 26.8856 20.2043 26.901 20.1646 26.9167C20.0144 26.9763 19.8516 27.0408 19.6982 27.1112L19.175 27.3408C19.0558 27.3917 18.9262 27.4548 18.8164 27.5082C18.7625 27.5344 18.7134 27.5583 18.6726 27.5773L18.6726 27.5773L18.6676 27.5797L18.2176 27.7954L18.2098 27.7992L18.2021 27.8032L17.8036 28.0115L17.8029 28.0119L17.4517 28.1948C17.4517 28.1948 17.4517 28.1948 17.4517 28.1948C17.4516 28.1949 17.4514 28.195 17.4513 28.195C17.3734 28.2356 17.2882 28.2842 17.2218 28.3222C17.1921 28.3392 17.1661 28.354 17.1462 28.365L17.1462 28.365L17.1427 28.3669L16.9849 28.456L14.1442 24.2796L14.3825 24.1037C14.4253 24.0726 14.4639 24.044 14.5014 24.0161C14.5667 23.9676 14.6287 23.9215 14.7037 23.8698L15.1021 23.5955L15.1027 23.595L15.3231 23.4438L15.5508 23.2875L16.0577 22.9626C16.1308 22.9167 16.1978 22.8735 16.2625 22.8318C16.377 22.7579 16.4844 22.6886 16.6066 22.6173L16.6067 22.6173L16.6098 22.6154L17.2245 22.2507L17.2245 22.2508L17.2298 22.2475C17.3896 22.1501 17.5559 22.0589 17.7377 21.9594C17.7799 21.9363 17.8229 21.9127 17.8668 21.8885C17.9543 21.8415 18.0361 21.7962 18.1157 21.7522C18.2605 21.6721 18.3977 21.5962 18.5477 21.521L18.5489 21.5204L19.2798 21.1514L19.2798 21.1514L19.2848 21.1488C19.3876 21.0955 19.4938 21.0463 19.6132 20.9911C19.6225 20.9869 19.6317 20.9826 19.6411 20.9782L19.6413 20.9781L20.0241 20.8009L20.0245 20.8007L20.4074 20.6239C20.4889 20.5879 20.568 20.5546 20.6518 20.5194C20.6962 20.5006 20.742 20.4814 20.7901 20.4609C20.8837 20.4219 20.9738 20.3837 21.062 20.3462C21.2347 20.2729 21.4005 20.2025 21.5733 20.1348L22.3791 19.8272L22.3791 19.8273L22.3843 19.8252C22.5054 19.7774 22.6302 19.7347 22.7672 19.6881L22.7684 19.6877L23.173 19.5491L23.1735 19.5489L23.5731 19.4126C23.6554 19.3855 23.7333 19.362 23.817 19.3367C23.8633 19.3227 23.9113 19.3082 23.9629 19.2922C23.9635 19.292 23.9641 19.2918 23.9647 19.2916L24.746 19.0561L25.509 18.8528C25.5096 18.8527 25.5102 18.8525 25.5108 18.8524C25.5631 18.8388 25.61 18.8262 25.6542 18.8144C25.7306 18.7939 25.7989 18.7756 25.8734 18.7582C25.8737 18.7581 25.874 18.758 25.8743 18.758L26.2411 18.6736L26.242 18.6734L26.9436 18.5136L27.6031 18.3862L27.6042 18.3859L27.9174 18.3262C27.9176 18.3261 27.9178 18.3261 27.9179 18.3261C27.9391 18.3221 27.9591 18.3182 27.9783 18.3146C28.0606 18.2988 28.1282 18.2859 28.2024 18.2755L28.2024 18.2755L28.208 18.2747L28.798 18.1848L28.8 18.1845L29.3148 18.1082L29.6841 18.0611L29.6845 18.0611L29.8618 18.0387L30.314 24.9385L30.1349 24.9395L30.1343 24.9395L29.764 24.9419V24.9418L29.7515 24.9421L29.4005 24.9533L29.3979 24.9533L29.0024 24.9637C28.9292 24.9641 28.8466 24.97 28.7842 24.9744C28.7707 24.9754 28.7581 24.9763 28.7467 24.9771L28.7459 24.9771L28.4995 24.9939L28.499 24.994L27.9735 25.0292L27.9643 25.0298L27.9551 25.0308L27.3946 25.089L27.3939 25.0891L27.1016 25.1188L27.0994 25.119C27.028 25.1265 26.9444 25.1385 26.8743 25.1486C26.8414 25.1533 26.8114 25.1576 26.787 25.1608ZM14.0379 24.3581L14.0379 24.3581L14.0379 24.3581ZM30.0063 18.0205C30.0063 18.0205 30.0063 18.0205 30.0063 18.0205L30.0063 18.0205Z" fill="#8A919D" stroke="#8A919D"/>
<path d="M6.90603 31.6205L6.90604 31.6205L6.90777 31.618C6.98333 31.5097 7.05662 31.4077 7.1316 31.3109L7.13163 31.3109L7.1353 31.306L7.61375 30.6729C7.61381 30.6728 7.61388 30.6727 7.61394 30.6726C7.71328 30.5416 7.81102 30.4213 7.91331 30.2955C7.96898 30.227 8.02599 30.1568 8.08535 30.0824C8.10424 30.059 8.12291 30.0358 8.14138 30.0129C8.28057 29.8402 8.4087 29.6813 8.54039 29.5323L8.54041 29.5323L8.54429 29.5278L9.00135 28.998L9.00136 28.998L9.00283 28.9962C9.09339 28.8903 9.17933 28.7976 9.2704 28.6995C9.32191 28.6439 9.37505 28.5867 9.4316 28.5242L9.83386 28.0885L10.2244 27.6923L10.2255 27.6912L10.5755 27.338L10.5755 27.338L10.5778 27.3357C10.6131 27.2996 10.6394 27.2743 10.6702 27.2447C10.6836 27.2319 10.6978 27.2182 10.714 27.2026C10.7142 27.2023 10.7145 27.2021 10.7147 27.2018L10.8415 27.0797L10.842 27.0793L10.9708 26.9553L13.9459 30.4407L13.8033 30.5483L13.8028 30.5487L13.6602 30.6563L13.6591 30.6571C13.6511 30.6632 13.641 30.6708 13.6296 30.6793C13.5916 30.7078 13.5391 30.7473 13.4986 30.7805L13.2033 31.0157L13.2026 31.0163L12.8613 31.2865L12.8543 31.2921L12.8474 31.2979L12.4609 31.6271L12.4609 31.6271L12.4571 31.6304C12.4207 31.662 12.3773 31.6987 12.3303 31.7383C12.2351 31.8186 12.1251 31.9114 12.0281 32.001C12.0276 32.0014 12.0272 32.0018 12.0267 32.0022L11.5932 32.3967C11.4537 32.5199 11.3174 32.6528 11.1889 32.778C11.1667 32.7997 11.1447 32.8211 11.123 32.8422L11.123 32.8422L11.1203 32.8448C11.0742 32.8903 11.0221 32.9405 10.967 32.9935C10.8621 33.0946 10.7466 33.2057 10.6428 33.3133C10.6428 33.3133 10.6427 33.3133 10.6427 33.3133L10.1728 33.8C10.084 33.8896 10.0004 33.9809 9.92156 34.0694C9.92113 34.0699 9.92071 34.0704 9.92028 34.0709L9.68761 34.328L9.68744 34.3282L9.44987 34.5903L9.44944 34.5908C9.39226 34.654 9.33096 34.7268 9.27764 34.7902C9.25268 34.8198 9.22947 34.8474 9.20925 34.871L9.20923 34.8709L9.20587 34.8749C9.1541 34.9365 9.0991 35.001 9.04277 35.0671C8.94223 35.185 8.83742 35.308 8.73907 35.428L8.73903 35.428L8.73441 35.4338L8.28769 35.9961L8.28747 35.9964L8.17613 36.1364L8.17095 36.1429L8.16598 36.1496L8.05972 36.2928L8.05951 36.2931L7.8497 36.5755C7.6437 36.8437 7.44885 37.126 7.26604 37.3909C7.18662 37.5059 7.10948 37.6177 7.03468 37.7236L7.02884 37.7319L7.02335 37.7403L6.66115 38.2996L6.66065 38.3003L6.48528 38.5717L6.48103 38.5783L6.47699 38.585L6.31438 38.8549L6.3141 38.8554L6.00112 39.3738L5.99708 39.3805L5.99324 39.3873L5.7155 39.8813L5.71549 39.8813L5.71363 39.8846C5.68674 39.9333 5.65712 39.9858 5.62661 40.0399C5.56847 40.1429 5.50706 40.2517 5.45495 40.3512L5.45394 40.3532L5.23731 40.7714L5.2373 40.7714L5.04596 41.1403L5.04253 41.1469L5.0393 41.1536L4.88655 41.4712L4.88602 41.4723L4.79603 41.6605L2.25763 40.6873L2.34324 40.4332L2.34387 40.4313L2.46876 40.0652L2.62902 39.6356L2.62925 39.6349L2.81449 39.14C2.81463 39.1396 2.81476 39.1392 2.8149 39.1389C2.85546 39.032 2.89813 38.929 2.94508 38.8156C2.9722 38.7501 3.00074 38.6812 3.03112 38.6061L3.27283 38.022L3.55085 37.4026L3.55104 37.4021L3.69517 37.0819L3.85189 36.759L3.85248 36.7578L4.18157 36.0845C4.2532 35.9506 4.32288 35.8179 4.39213 35.686C4.56481 35.357 4.73478 35.0333 4.92555 34.7092L4.92559 34.7092L4.92878 34.7037L5.1317 34.3484L5.13174 34.3483L5.23012 34.1762L5.33339 34.0074L5.3338 34.0067L5.76523 33.3043C5.8613 33.1529 5.95816 33.0065 6.05788 32.8558C6.10861 32.7791 6.16008 32.7013 6.21257 32.6211C6.24441 32.5735 6.27271 32.5303 6.29953 32.4894C6.34531 32.4196 6.38674 32.3564 6.43402 32.2889C6.43416 32.2887 6.4343 32.2885 6.43444 32.2883L6.67034 31.9539L6.67063 31.9535L6.90603 31.6205ZM14.0402 30.5511C14.0401 30.551 14.04 30.551 14.04 30.5509L14.0401 30.5511L14.0402 30.5511Z" fill="#8A919D" stroke="#8A919D"/>
<path d="M2.20653 53.0098C2.2305 53.0093 2.26037 53.0118 2.29218 53.0162C2.23781 53.0168 2.18047 53.0219 2.12817 53.0308C2.15668 53.0214 2.18397 53.0138 2.20653 53.0098ZM1.83531 52.5007L1.77585 53.2461L1.77584 53.2463L1.76227 53.4158C1.76095 53.4242 1.76009 53.4311 1.75955 53.4357L1.75823 53.4486L1.75754 53.4571L1.75689 53.4676L1.75661 53.4738L1.75638 53.481L1.75635 53.4826L1.75425 53.5283L1.75423 53.5287L1.74975 53.6244L1.74974 53.6247L1.732 54.0065L1.73199 54.0068L1.71431 54.3858L1.71416 54.3858L1.71389 54.3982L1.706 54.7565L1.706 54.7568L1.6982 55.111L1.69819 55.1112L1.69428 55.2872L1.69409 55.2872L1.69417 55.3011L1.69528 55.4778L1.69528 55.4779L1.69948 56.1708L1.6993 56.1708L1.69974 56.1842L1.72139 56.8453C1.7256 57.0351 1.73714 57.2209 1.74768 57.3908C1.74978 57.4247 1.75184 57.4578 1.75379 57.4903L1.75379 57.4903L1.75398 57.4932C1.75443 57.5001 1.75488 57.5069 1.75532 57.5137H1.03513C1.03251 57.4995 1.0299 57.4853 1.0273 57.4711C0.994491 57.2926 0.962759 57.1199 0.937078 56.9414L0.937101 56.9414L0.936375 56.9367L0.830587 56.2496L0.739002 55.5292L0.738942 55.5287L0.716234 55.3493L0.697939 55.1658L0.697894 55.1653L0.659955 54.78L0.659922 54.7797L0.622523 54.3949L0.595023 54.022L0.566872 53.6403L0.5598 53.5446L0.559798 53.5446L0.556904 53.5054L0.554738 53.4497L0.554692 53.4486L0.546521 53.2502L0.546513 53.25L0.514077 52.4528L0.51403 52.4516L0.506719 52.2604L0.505519 52.0686L0.505517 52.0682L0.503161 51.6686L0.503159 51.6683L0.500952 51.2701L0.50095 51.2697L0.500033 51.0793L0.505131 50.8916C0.505143 50.8912 0.505154 50.8908 0.505165 50.8905C0.508883 50.7723 0.512116 50.656 0.515304 50.5413C0.52664 50.1333 0.537415 49.7456 0.567478 49.3664L0.56751 49.3664L0.567897 49.3607C0.574115 49.269 0.579662 49.1806 0.585083 49.0943C0.595027 48.9359 0.604545 48.7843 0.616992 48.6311L0.686775 47.9275L0.686824 47.9275L0.687416 47.9206C0.714945 47.5974 0.756426 47.2954 0.79776 46.9945C0.813603 46.8791 0.829424 46.7639 0.844431 46.6478L0.883614 46.3586C0.892336 46.3014 0.901427 46.2489 0.911254 46.1921C0.917052 46.1586 0.923105 46.1237 0.929491 46.0854L1.02002 45.5587C1.03081 45.4975 1.04069 45.4398 1.05007 45.3851C1.0674 45.284 1.08301 45.193 1.09947 45.1084L1.17352 44.7438L1.17357 44.7436L1.20923 44.5681L3.38403 45.148L3.32766 45.3179L3.32752 45.3183L3.2096 45.6734L3.20958 45.6734L3.20834 45.6772C3.18055 45.7632 3.15324 45.8559 3.127 45.9449C3.11324 45.9915 3.09977 46.0372 3.08668 46.0805L3.08667 46.0805L3.08609 46.0824L2.95274 46.5288L2.95274 46.5288L2.95224 46.5305C2.94603 46.5515 2.9386 46.5761 2.93056 46.6027C2.91388 46.6579 2.89458 46.7217 2.87814 46.7808L2.87807 46.7808L2.87587 46.7892L2.80781 47.0516L2.8078 47.0516L2.80699 47.0548C2.78342 47.1481 2.7573 47.2473 2.72998 47.3511C2.65882 47.6215 2.57947 47.923 2.51547 48.2324L2.37371 48.867L2.37363 48.8669L2.3718 48.8759C2.34245 49.0194 2.31452 49.1708 2.2873 49.3183C2.27264 49.3977 2.25819 49.4759 2.24384 49.5513C2.17029 49.9131 2.11403 50.2904 2.05913 50.6586C2.0426 50.7695 2.02619 50.8796 2.00946 50.9881L2.00946 50.9881L2.00912 50.9904L1.98193 51.1725L1.98067 51.1809L1.9797 51.1894L1.95872 51.3725L1.9587 51.3727L1.91637 51.7409L1.91634 51.7412L1.87365 52.1112L1.87364 52.1113L1.8522 52.297L1.85124 52.3054L1.85055 52.3137L1.83537 52.4999L1.83531 52.5007ZM3.42996 45.0096L3.42987 45.0099L3.42996 45.0096Z" fill="#8A919D" stroke="#8A919D"/>
<path d="M21.5358 56.9038L21.5358 56.9038C21.6078 57.9459 21.917 58.9182 22.4079 59.7686C23.6371 61.8976 26.0065 63.2622 28.6286 63.0812C29.1388 63.0461 29.6541 62.9445 30.1124 62.8072L30.1183 62.8054L54.4631 55.3505L63.7344 52.5114L63.7344 52.5114L69.4777 50.7527L69.4777 50.7527C70.1322 50.5523 70.5749 50.0771 70.7546 49.51C70.9243 48.9745 70.8506 48.391 70.5785 47.9198C70.2402 47.3337 69.5914 46.9221 68.7792 46.978L68.7791 46.978L62.5455 47.408L62.6143 48.4057L62.5455 47.408L53.3496 48.0425L27.7132 49.811C24.0488 50.0638 21.283 53.2394 21.5358 56.9038ZM29.9306 55.6674C30.4192 56.5138 30.1293 57.5961 29.2828 58.0848C28.4365 58.5734 27.3541 58.2834 26.8655 57.437C26.3768 56.5907 26.6669 55.5083 27.5132 55.0197C28.3597 54.5309 29.4419 54.821 29.9306 55.6674Z" fill="#8A919D" stroke="white" stroke-width="2"/>
</g>
<defs>
<clipPath id="clip0">
<rect width="70" height="70" fill="white"/>
</clipPath>
</defs>
</svg>
