<svg width="70" height="70" viewBox="0 0 70 70" fill="none" xmlns="http://www.w3.org/2000/svg">
<path d="M69.4492 57.516H55.7446L55.8016 57.269C55.8018 57.2685 55.8019 57.2681 55.802 57.2676C55.8251 57.1696 55.8477 57.0552 55.8682 56.9511C55.8793 56.8945 55.8899 56.8409 55.8996 56.7946L55.8996 56.7947L55.9005 56.7901C55.9067 56.7592 55.9134 56.7267 55.9203 56.6931C55.9463 56.566 55.9758 56.422 55.9988 56.2764L56.0899 55.7525L56.0911 55.7453L56.0922 55.7382L56.1718 55.1877C56.1928 55.0591 56.2093 54.912 56.2238 54.7815C56.2313 54.7144 56.2383 54.6517 56.2452 54.5981L56.2452 54.5981L56.2457 54.5942C56.2562 54.5071 56.2667 54.4194 56.2771 54.3318L56.2811 54.2985L56.282 54.2905L56.2827 54.2826L56.3087 53.9849L56.3089 53.9836L56.3299 53.7513C56.3338 53.7455 56.3376 53.7396 56.3411 53.7335C56.3456 53.7082 56.3495 53.674 56.3501 53.6653C56.3508 53.6542 56.351 53.6453 56.351 53.645L56.351 53.6447L56.3519 53.6251L56.352 53.6233L56.3601 53.4309C56.3601 53.4309 56.3601 53.4308 56.3601 53.4308C56.3637 53.3475 56.3673 53.2641 56.3708 53.1806C56.3783 53.0066 56.3858 52.8321 56.3931 52.6577L56.4013 52.466L56.4014 52.466L56.4016 52.4554L56.4043 52.3254L56.4044 52.3222L56.4114 52.062L56.4115 52.0584L56.4205 51.7985L56.4206 51.7956L56.4258 51.6655L56.4263 51.6527L56.4261 51.6399L56.4244 51.4897L56.4244 51.4862C56.4225 51.3811 56.4214 51.2724 56.4203 51.1617C56.4175 50.8713 56.4146 50.5674 56.3955 50.2785C56.3921 50.2116 56.3889 50.1388 56.3857 50.0642C56.3806 49.9454 56.3752 49.8218 56.3682 49.7089L56.3684 49.7089L56.3675 49.6985L56.323 49.1613C56.3069 48.904 56.276 48.6474 56.2487 48.4208C56.2372 48.3248 56.2263 48.2342 56.2174 48.1511L56.2174 48.1511L56.2169 48.1472L56.1912 47.9214L56.1913 47.9214L56.1902 47.9129C56.1833 47.8603 56.1738 47.8001 56.166 47.7505C56.1624 47.7274 56.1591 47.7066 56.1566 47.6899L56.1564 47.6882L56.0959 47.2914L56.0956 47.2899C56.0901 47.2547 56.0843 47.2148 56.0782 47.1731C56.0663 47.092 56.0534 47.004 56.04 46.9295L56.0401 46.9295L56.0391 46.9244L55.9836 46.6322L55.9833 46.631L55.9625 46.5189L67.5505 43.2166L67.6626 43.5647L67.663 43.566L67.7982 43.9899C67.8284 44.0877 67.8566 44.1876 67.888 44.2984C67.9046 44.3572 67.9221 44.4189 67.9411 44.4851C67.9413 44.4856 67.9414 44.486 67.9415 44.4865L68.1038 45.0604L68.1045 45.0627L68.1893 45.3681L68.2691 45.6895C68.2692 45.69 68.2693 45.6905 68.2695 45.691C68.2973 45.8057 68.3258 45.9207 68.3545 46.0364C68.442 46.3891 68.5313 46.7488 68.607 47.1317L68.6069 47.1317L68.608 47.137L68.7749 47.9369C68.8103 48.1227 68.8425 48.3094 68.8761 48.5035C68.8912 48.5907 68.9065 48.6794 68.9225 48.7702L68.9225 48.7702L68.9234 48.7752C69.009 49.2342 69.0733 49.7073 69.1408 50.2033C69.1554 50.3106 69.1701 50.419 69.1853 50.5285C69.1853 50.529 69.1854 50.5294 69.1855 50.5299L69.2146 50.7494L69.2389 50.9893L69.2391 50.9911L69.288 51.4884L69.2882 51.4902L69.3355 51.9904L69.3357 51.9922L69.3582 52.24L69.3732 52.4314L69.3732 52.4317L69.4331 53.2024L69.4331 53.2028L69.4479 53.3943L69.4479 53.3945L69.4489 53.4078L69.4502 53.5215L69.4503 53.5288L69.4506 53.536L69.4511 53.5493L69.4511 53.5506L69.4533 53.6073L69.4533 53.6074L69.4577 53.7223L69.4577 53.7231L69.4745 54.1831L69.4746 54.1838L69.4903 54.6356L69.4951 55.0822C69.4954 55.1886 69.4966 55.2897 69.4977 55.3878C69.5 55.5845 69.5021 55.7688 69.4968 55.9579H69.4967L69.4967 55.9623L69.4803 56.8212L69.4492 57.516ZM55.8429 46.553L55.843 46.553L55.8429 46.553Z" stroke="#8A919D"/>
<path d="M49.0807 33.0393L48.8306 32.7749C48.7747 32.7158 48.7081 32.6507 48.6575 32.6013C48.6352 32.5795 48.616 32.5608 48.6023 32.547L48.5998 32.5445L48.5054 32.4512L54.6938 24.9604L54.9685 25.1712C55.0113 25.2047 55.0515 25.2355 55.091 25.2657C55.1606 25.319 55.2279 25.3705 55.3039 25.4325C55.304 25.4326 55.3042 25.4327 55.3043 25.4329L55.7015 25.7586L55.7024 25.7593L56.1495 26.1277L56.6327 26.5502C56.697 26.6075 56.7584 26.661 56.8184 26.7134C56.9308 26.8114 57.0381 26.905 57.1502 27.0106L57.1513 27.0117L57.7056 27.5305L57.7056 27.5306L57.7092 27.5339C57.8736 27.6848 58.0354 27.8464 58.2099 28.0208C58.2289 28.0398 58.248 28.0589 58.2674 28.0782C58.3374 28.1491 58.4053 28.2166 58.472 28.2829C58.5996 28.4097 58.7227 28.532 58.8475 28.6644C58.8476 28.6645 58.8477 28.6646 58.8478 28.6647L59.441 29.2965L59.441 29.2965L59.4437 29.2994C59.538 29.3982 59.6309 29.5019 59.7258 29.6108L59.7275 29.6127L60.0225 29.9477L60.0232 29.9484L60.3191 30.2856C60.3193 30.2858 60.3194 30.2859 60.3196 30.2861C60.3806 30.356 60.4357 30.4231 60.4957 30.4961C60.5289 30.5364 60.5636 30.5786 60.6016 30.6241C60.6617 30.6974 60.7211 30.7693 60.7799 30.8404C60.913 31.0013 61.0429 31.1585 61.1716 31.3201L61.727 32.0391L61.7279 32.0402L61.8617 32.2145L61.9906 32.392L61.9911 32.3928L62.2556 32.7585L62.2555 32.7585L62.2591 32.7634C62.5173 33.1119 62.753 33.4638 62.9917 33.8201C63.0752 33.9447 63.159 34.0698 63.2442 34.1955L63.6889 34.9016L63.69 34.9034L63.9025 35.2439L64.101 35.5821L64.1016 35.5831L64.4858 36.2415C64.5667 36.3862 64.6428 36.5267 64.7187 36.6669C64.754 36.7319 64.7892 36.7969 64.8248 36.8622C64.8249 36.8624 64.8251 36.8627 64.8252 36.863L64.9837 37.1555C64.984 37.1562 64.9843 37.1568 64.9846 37.1574C65.0061 37.1977 65.0245 37.2315 65.0413 37.2623C65.0732 37.321 65.0994 37.3689 65.1295 37.4311L65.1295 37.4311L65.1318 37.4357L65.4175 38.0107L65.4185 38.0127L65.6662 38.5171C65.7253 38.6418 65.7798 38.7564 65.8291 38.8601C65.8292 38.8604 65.8293 38.8606 65.8295 38.8608L65.9057 39.0218L55.1618 43.3384L55.105 43.1681L55.1048 43.1677L54.9889 42.8216L54.9889 42.8216L54.9865 42.8147L54.8837 42.5226L54.8823 42.5187L54.7699 42.19C54.7509 42.1301 54.7183 42.0484 54.6993 42.0008C54.6937 41.9867 54.6892 41.9757 54.6867 41.969L54.6867 41.969L54.6849 41.9642L54.6007 41.7497L54.6005 41.7491L54.422 41.293L54.4189 41.2853L54.4157 41.2777L54.2093 40.7973L54.2086 40.7955L54.1017 40.5443L54.0983 40.5362L54.0945 40.5283L53.9761 40.2748L53.9757 40.274L53.7308 39.7478L53.726 39.7376L53.7208 39.7276C53.6661 39.6227 53.6089 39.5088 53.5492 39.3901C53.4265 39.1461 53.2936 38.8819 53.1522 38.6341L53.0048 38.3646L53.0042 38.3634L52.9296 38.2263L52.9251 38.2181L52.9204 38.2101L52.8408 38.0758L52.8401 38.0747L52.5188 37.5298L52.5189 37.5298L52.5148 37.5231C52.4481 37.414 52.3737 37.2975 52.3028 37.1864C52.2572 37.115 52.213 37.0458 52.1733 36.9823L52.1733 36.9823L52.17 36.9771C52.1561 36.9555 52.1394 36.9288 52.1209 36.8994C52.0817 36.8368 52.0349 36.7623 51.9924 36.6998L51.9922 36.6996L51.8156 36.441L51.8148 36.4398L51.6413 36.1843C51.5828 36.0965 51.5194 36.004 51.4506 35.9127L51.0961 35.4261C51.0961 35.4261 51.096 35.426 51.096 35.4259C51.0185 35.3193 50.9287 35.2051 50.8483 35.103C50.8049 35.0478 50.7643 34.9962 50.7299 34.9512L50.7299 34.9511L50.7273 34.9478C50.7093 34.9248 50.6911 34.9012 50.6726 34.8772C50.5757 34.7522 50.471 34.617 50.3627 34.4912L50.0253 34.0857C49.9506 33.9942 49.8611 33.8948 49.786 33.8112C49.7483 33.7694 49.7143 33.7316 49.6875 33.7007L49.6875 33.7007L49.6839 33.6966L49.3782 33.3524L49.3727 33.3462L49.3669 33.3401L49.0818 33.0404L49.0807 33.0393ZM65.968 39.1534C65.9679 39.1532 65.9678 39.153 65.9677 39.1528L65.9679 39.1534L65.968 39.1534Z" stroke="#8A919D"/>
<path d="M33.8797 25.698C33.9759 25.7111 34.0823 25.7256 34.1983 25.7415C34.3135 25.7615 34.4382 25.7832 34.5714 25.8065C34.7043 25.8293 34.8458 25.8535 34.9948 25.8792C35.1244 25.9007 35.2585 25.9319 35.398 25.9611L39.4067 17.7614C39.208 17.7304 39.0109 17.6996 38.8178 17.6695C38.6854 17.6498 38.5552 17.6272 38.4254 17.6109C38.2956 17.5952 38.1674 17.5797 38.0409 17.5644C37.7883 17.5344 37.5425 17.5051 37.3049 17.4769C37.0666 17.4565 36.8363 17.4368 36.6154 17.4178C36.3943 17.4009 36.1835 17.3785 35.9817 17.369C35.7802 17.3591 35.5891 17.3497 35.4095 17.3408C35.2301 17.3323 35.0622 17.3245 34.9071 17.3171C34.7519 17.3146 34.6092 17.3123 34.4804 17.3102C34.2991 17.308 34.1453 17.3062 34.0219 17.3047C33.8263 17.3024 33.6644 17.4553 33.655 17.6507L33.2895 25.2826C33.2805 25.4707 33.4161 25.6344 33.6026 25.66C33.6821 25.6709 33.7747 25.6836 33.8797 25.698Z" fill="#8A919D"/>
<path d="M44.655 29.9001C44.7627 29.9785 44.8648 30.0527 44.9607 30.1227C45.0568 30.1915 45.1468 30.2559 45.23 30.3155C45.266 30.3402 45.3255 30.3853 45.374 30.4214C45.4241 30.4588 45.4717 30.4944 45.5169 30.5281C45.6156 30.6017 45.7027 30.6667 45.7772 30.7224C45.9449 30.8475 46.1829 30.8052 46.2978 30.6303L51.5316 22.6579C51.6465 22.483 51.5908 22.2477 51.4092 22.1436C51.3284 22.0974 51.2342 22.0433 51.1275 21.982C51.0785 21.9539 51.0269 21.9243 50.9727 21.8932C50.9137 21.8599 50.852 21.8249 50.7877 21.7885C50.6388 21.7065 50.4777 21.6178 50.3056 21.523C50.1335 21.4292 49.9503 21.3294 49.7572 21.2241C49.5732 21.1319 49.3799 21.0351 49.178 20.9339C48.9754 20.835 48.7687 20.725 48.5469 20.6251C48.3263 20.5241 48.0981 20.4195 47.8637 20.312C47.6308 20.2021 47.3849 20.1022 47.1355 19.9974C46.8849 19.8949 46.6329 19.7827 46.3696 19.6838C46.3029 19.6585 46.2352 19.6329 46.168 19.6074L43.9102 29.4073C44.035 29.4857 44.1526 29.5688 44.2684 29.6438C44.4032 29.7332 44.5322 29.8187 44.655 29.9001Z" fill="#8A919D"/>
<path d="M26.8524 25.6585C26.9535 25.6451 27.0528 25.6286 27.1519 25.6182C27.251 25.6082 27.3489 25.5982 27.4454 25.5883C27.6381 25.5684 27.8255 25.5489 28.0068 25.5301C28.1887 25.5179 28.3644 25.5061 28.5331 25.4948C28.6172 25.489 28.6996 25.4834 28.7802 25.4779C28.8605 25.4725 28.9409 25.4657 29.0099 25.4656C29.152 25.4618 29.287 25.4584 29.4136 25.455C29.5399 25.4511 29.6579 25.4473 29.7673 25.4438C29.9021 25.443 30.0259 25.4421 30.1376 25.4414C30.2606 25.4407 30.3694 25.4402 30.4624 25.4396C30.6716 25.4385 30.8361 25.2613 30.8224 25.0525L30.3512 17.8632C30.3375 17.6543 30.1513 17.5001 29.9438 17.5263C29.8514 17.538 29.7436 17.5516 29.6216 17.567C29.5084 17.5814 29.383 17.5974 29.2466 17.6148C29.0854 17.6387 28.911 17.6645 28.7247 17.6921C28.5389 17.7204 28.3411 17.7506 28.1327 17.7823C28.026 17.7974 27.9278 17.8173 27.8247 17.8368C27.7219 17.8564 27.6168 17.8765 27.5094 17.897C27.295 17.9384 27.0719 17.9816 26.8406 18.0262C26.6113 18.0785 26.374 18.1325 26.1302 18.188C26.0085 18.216 25.8852 18.2443 25.7604 18.2731C25.6357 18.3022 25.5106 18.3379 25.3838 18.3707C25.1307 18.4381 24.8723 18.507 24.6094 18.577C24.3492 18.6555 24.0846 18.7352 23.8168 18.816C23.6833 18.8573 23.5484 18.8963 23.4143 18.9404C23.2807 18.986 23.1463 19.0318 23.0114 19.0778C22.8768 19.124 22.7417 19.1702 22.6062 19.2167C22.4706 19.2629 22.3348 19.3092 22.2008 19.362C21.9322 19.4645 21.6626 19.5675 21.393 19.6704C21.1246 19.7755 20.8606 19.8919 20.596 20.0021C20.4641 20.0583 20.3318 20.1125 20.2015 20.1702C20.072 20.23 19.943 20.2895 19.8144 20.3489C19.6861 20.4083 19.5583 20.4675 19.4312 20.5264C19.3041 20.5852 19.1775 20.6431 19.0544 20.707C18.8075 20.8317 18.5635 20.9549 18.3236 21.076C18.0836 21.1963 17.8549 21.3291 17.6277 21.4513C17.4016 21.5759 17.1792 21.6947 16.9694 21.8226C16.7585 21.9478 16.5532 22.0696 16.3547 22.1873C16.1556 22.3034 15.971 22.4288 15.79 22.5422C15.6103 22.6573 15.4381 22.7678 15.2743 22.8728C15.114 22.9828 14.962 23.0871 14.8191 23.1852C14.6766 23.2834 14.5432 23.3752 14.4199 23.4601C14.2967 23.5451 14.1877 23.6293 14.0873 23.7021C13.9512 23.8026 13.835 23.8884 13.7409 23.9578C13.5839 24.0737 13.5471 24.2926 13.6569 24.454L16.6422 28.8431C16.7484 28.9993 16.9561 29.0483 17.1207 28.9554C17.1965 28.9127 17.2861 28.862 17.3883 28.8044C17.4774 28.7551 17.5738 28.6969 17.6826 28.6403C17.7914 28.5835 17.909 28.5224 18.0346 28.4569C18.1598 28.3914 18.2932 28.3217 18.4337 28.2483C18.5767 28.1797 18.7269 28.1077 18.8837 28.0325C19.0413 27.9591 19.2011 27.875 19.3734 27.8017C19.5444 27.7266 19.7213 27.6491 19.9031 27.5693C20.0831 27.4864 20.2738 27.4139 20.4667 27.3366C20.6607 27.2614 20.8549 27.1764 21.0584 27.1045C21.2609 27.0315 21.4669 26.9573 21.6754 26.8822C21.7788 26.8429 21.8852 26.8096 21.9918 26.7756C22.0982 26.7413 22.2052 26.7069 22.3125 26.6724C22.4197 26.6377 22.5272 26.603 22.6351 26.568C22.7436 26.5351 22.8536 26.5056 22.9629 26.4741C23.1824 26.4134 23.4004 26.346 23.6215 26.2896C23.8427 26.2348 24.0639 26.1801 24.2842 26.1256C24.3935 26.0965 24.5045 26.0738 24.6149 26.051C24.7252 26.0278 24.8351 26.0047 24.9447 25.9816C25.0539 25.9584 25.1627 25.9353 25.271 25.9123C25.3796 25.8907 25.4887 25.8739 25.5963 25.8546C25.8116 25.8172 26.0243 25.7802 26.2336 25.744C26.4436 25.715 26.6501 25.6864 26.8524 25.6585Z" fill="#8A919D"/>
<path d="M6.49778 31.3318C6.41952 31.4425 6.34098 31.5537 6.26206 31.6653C6.18337 31.7768 6.10438 31.8888 6.02509 32.0012C5.94618 32.1137 5.87234 32.2304 5.79557 32.3452C5.64422 32.5764 5.48934 32.8058 5.34108 33.0395C5.19629 33.2752 5.0515 33.5109 4.90731 33.7458L4.79973 33.9216L4.6976 34.1003C4.62974 34.219 4.5621 34.3376 4.49467 34.4556C4.2191 34.9237 3.9797 35.4022 3.73639 35.8567C3.62314 36.0884 3.51173 36.3163 3.40268 36.5394C3.34859 36.6508 3.29502 36.7612 3.24219 36.8701C3.19246 36.9805 3.14338 37.0896 3.0949 37.1973C2.99837 37.4124 2.9045 37.6216 2.81365 37.824C2.72891 38.0289 2.64697 38.2268 2.56835 38.4167C2.49128 38.6073 2.41339 38.7876 2.34701 38.9626C2.2815 39.1377 2.21931 39.304 2.16081 39.4601C2.1026 39.6161 2.04814 39.7621 1.99782 39.8971C1.95132 40.0334 1.90866 40.1586 1.87005 40.2717C1.81994 40.4204 1.77691 40.548 1.74176 40.6525C1.6795 40.8371 1.77419 41.0375 1.95619 41.1072L4.73481 42.1725C4.91165 42.2403 5.11082 42.1611 5.19254 41.9903C5.23306 41.9057 5.28147 41.8044 5.3371 41.688C5.38323 41.5922 5.43422 41.486 5.48985 41.3704C5.54895 41.2564 5.61283 41.1333 5.68114 41.0017C5.74922 40.8704 5.82158 40.7305 5.89791 40.5831C5.97484 40.4362 6.06341 40.2855 6.15131 40.1264C6.24032 39.9681 6.33309 39.8031 6.4291 39.6323C6.53027 39.4648 6.63483 39.2915 6.74241 39.1134C6.79597 39.0244 6.85028 38.9343 6.90525 38.8431C6.96309 38.7536 7.02167 38.6631 7.08084 38.5713C7.19917 38.3886 7.32009 38.202 7.44307 38.0121C7.70435 37.6422 7.95989 37.2526 8.24866 36.8769C8.31917 36.7819 8.38998 36.6866 8.46101 36.5911L8.56749 36.4476L8.67904 36.3073C8.82759 36.1202 8.97673 35.9326 9.12586 35.7449C9.27773 35.5595 9.43534 35.3789 9.58853 35.1967C9.66619 35.1063 9.74076 35.0141 9.82026 34.9262C9.89984 34.8384 9.97913 34.7509 10.0581 34.6637C10.137 34.5766 10.2154 34.4899 10.2935 34.4035C10.3709 34.3167 10.449 34.2315 10.5301 34.1498C10.6897 33.9845 10.8474 33.8212 11.0025 33.6605C11.1573 33.5001 11.3189 33.3513 11.4714 33.2008C11.6252 33.0514 11.7738 32.9041 11.927 32.769C12.0776 32.632 12.2241 32.4987 12.3658 32.3696C12.5064 32.2399 12.6513 32.124 12.7851 32.0078C12.9198 31.893 13.0489 31.7831 13.1716 31.6786C13.2922 31.5831 13.4065 31.4927 13.514 31.4075C13.6208 31.3224 13.7208 31.2428 13.8133 31.1691C13.8557 31.134 13.9132 31.092 13.9617 31.0551C14.0116 31.0175 14.0591 30.9816 14.1042 30.9477C14.2024 30.8735 14.2891 30.8081 14.3634 30.7521C14.5304 30.626 14.5563 30.3856 14.4204 30.2265L11.2568 26.5202C11.1209 26.3611 10.8795 26.3489 10.7288 26.4941C10.6618 26.5586 10.5835 26.634 10.4949 26.7194C10.4542 26.7585 10.4114 26.7999 10.3664 26.8431C10.3207 26.8875 10.2771 26.928 10.2204 26.986C10.1119 27.0954 9.99467 27.2138 9.86934 27.3403C9.74466 27.4668 9.61196 27.6014 9.47203 27.7433C9.34198 27.8842 9.20522 28.0323 9.06257 28.1868C8.92169 28.3425 8.76975 28.4994 8.62275 28.6714C8.47516 28.8425 8.32263 29.0194 8.16576 29.2011C8.00697 29.3808 7.85334 29.5738 7.69529 29.7695C7.53842 29.9664 7.37307 30.1627 7.21531 30.3708C7.058 30.5789 6.8981 30.7904 6.73629 31.0047C6.65406 31.1109 6.57544 31.2205 6.49778 31.3318Z" fill="#8A919D"/>
<path d="M0.748262 44.3277C0.729767 44.4188 0.708104 44.5255 0.683567 44.646C0.661093 44.7567 0.636188 44.8793 0.609072 45.0128C0.582472 45.1492 0.556462 45.3104 0.52743 45.4748C0.498841 45.6409 0.468483 45.8176 0.436504 46.0039C0.421031 46.0967 0.403347 46.1927 0.388683 46.2894C0.375641 46.3856 0.362378 46.4839 0.348747 46.5841C0.296873 46.9859 0.228568 47.4183 0.189221 47.8801C0.166379 48.1102 0.142947 48.3465 0.119 48.5881C0.0992524 48.83 0.086063 49.0778 0.069042 49.3289C0.0292526 49.8307 0.0219578 50.3512 0.00537894 50.8778L0 51.0757L0.000957893 51.2744C0.00169473 51.4071 0.00243157 51.5401 0.00316841 51.6734C0.00397894 51.8065 0.00478946 51.9399 0.0055263 52.0733L0.00677893 52.2735L0.0144421 52.4739C0.0252736 52.7404 0.0361052 53.007 0.0469367 53.2726L0.0551157 53.4712L0.0576209 53.5355L0.0611578 53.5834L0.0682314 53.6791C0.077663 53.8067 0.0870209 53.934 0.0963787 54.0608C0.105737 54.1876 0.115094 54.3138 0.124305 54.4395C0.137052 54.5704 0.149652 54.701 0.162326 54.8307C0.175073 54.9602 0.187747 55.0888 0.200347 55.2168C0.206684 55.2805 0.213021 55.3442 0.219357 55.4075C0.227242 55.4698 0.235126 55.5319 0.242936 55.5938C0.274326 55.8406 0.305199 56.0834 0.33541 56.3211C0.371883 56.5577 0.407546 56.7893 0.442178 57.0147C0.474599 57.2399 0.516378 57.4578 0.554767 57.6685C0.557936 57.6853 0.561104 57.702 0.564199 57.7187C0.596251 57.891 0.746125 58.0157 0.921272 58.0157H1.90061C2.10972 58.0157 2.27566 57.8397 2.26335 57.631C2.26004 57.5753 2.25665 57.519 2.25289 57.4622C2.24066 57.2591 2.22592 57.0497 2.22121 56.8336C2.21413 56.6179 2.20691 56.3962 2.19947 56.1697C2.19807 55.9434 2.19667 55.7121 2.19527 55.4768C2.1949 55.4181 2.19453 55.359 2.19416 55.3C2.19542 55.2417 2.19674 55.1831 2.19807 55.1242C2.20065 55.0069 2.20323 54.8886 2.20588 54.7696C2.20846 54.6509 2.21111 54.5314 2.21376 54.4112C2.21966 54.2854 2.22548 54.1589 2.23145 54.032C2.23734 53.905 2.24331 53.7776 2.24921 53.6497L2.2537 53.5537L2.25591 53.5057L2.25621 53.4996C2.25621 53.4844 2.2565 53.5137 2.25665 53.5087L2.25753 53.497L2.25937 53.4739L2.27426 53.288C2.29401 53.0401 2.31383 52.7914 2.33372 52.5425L2.3489 52.3563L2.37034 52.1706C2.38464 52.0469 2.39886 51.9234 2.41308 51.8002C2.42723 51.677 2.44137 51.5541 2.45545 51.4316L2.47645 51.2483L2.50364 51.0662C2.57821 50.5821 2.64157 50.1059 2.73442 49.6499C2.77796 49.4215 2.81694 49.1968 2.86167 48.978C2.91037 48.7601 2.95797 48.5469 3.00432 48.3395C3.09009 47.9238 3.20128 47.5374 3.29176 47.1792C3.31497 47.0898 3.33767 47.0022 3.35985 46.9168C3.38328 46.8325 3.40855 46.7528 3.43183 46.6738C3.47877 46.5166 3.52335 46.3676 3.5652 46.2274C3.60801 46.086 3.64316 45.9597 3.68413 45.8329C3.72709 45.7035 3.76643 45.5849 3.8021 45.4777C3.84085 45.3608 3.87512 45.2577 3.90444 45.1693C3.97039 44.9708 3.85522 44.7581 3.65303 44.7042L1.19796 44.0496C0.995693 43.9955 0.789967 44.1227 0.748262 44.3277Z" fill="#8A919D"/>
<path d="M28.5393 57.0522C29.338 57.4426 30.1841 57.6277 31.0171 57.6277C33.1081 57.6277 35.1177 56.4627 36.0979 54.4576C36.2867 54.0716 36.4328 53.6455 36.5278 53.2442L42.244 28.4336L44.4209 18.9848L45.7696 13.1316C45.9265 12.4504 45.3846 11.9863 44.841 11.9863C44.5228 11.9863 44.2039 12.1454 44.0241 12.513L41.2797 18.1265L37.2312 26.4076L25.9446 49.4936C24.5739 52.2973 25.7356 55.6815 28.5393 57.0522ZM31.2267 49.0623C32.7563 49.0623 33.9963 50.3023 33.9963 51.8319C33.9963 53.3615 32.7563 54.6016 31.2267 54.6016C29.6971 54.6016 28.4571 53.3615 28.4571 51.8319C28.4571 50.3021 29.6971 49.0623 31.2267 49.0623Z" fill="#8A919D"/>
</svg>
