<svg width="70" height="70" viewBox="0 0 70 70" fill="none" xmlns="http://www.w3.org/2000/svg">
<g clip-path="url(#clip0)">
<path d="M69.4492 57.516H55.7446L55.8016 57.269C55.8018 57.2685 55.8019 57.2681 55.802 57.2676C55.8251 57.1696 55.8477 57.0552 55.8682 56.9511C55.8793 56.8945 55.8899 56.8409 55.8996 56.7947L55.8996 56.7947L55.9005 56.7902C55.9067 56.7592 55.9134 56.7268 55.9203 56.6931C55.9463 56.566 55.9758 56.422 55.9988 56.2764L56.0899 55.7525L56.0911 55.7453L56.0922 55.7382L56.1718 55.1877C56.1928 55.0591 56.2093 54.912 56.2238 54.7815C56.2313 54.7144 56.2383 54.6517 56.2452 54.5982L56.2452 54.5982L56.2457 54.5942C56.2562 54.5072 56.2667 54.4196 56.2771 54.332L56.2811 54.2985L56.282 54.2906L56.2827 54.2826L56.3087 53.9849L56.3089 53.9836L56.3299 53.7513C56.3339 53.7454 56.3376 53.7395 56.3412 53.7334C56.3456 53.7082 56.3495 53.674 56.3501 53.6653C56.3508 53.6542 56.351 53.6453 56.351 53.645L56.351 53.6447L56.3519 53.6251L56.352 53.6233L56.3601 53.4309C56.3601 53.4309 56.3601 53.4308 56.3601 53.4308C56.3637 53.3475 56.3673 53.2641 56.3708 53.1806C56.3783 53.0066 56.3858 52.8321 56.3931 52.6577L56.4013 52.466L56.4014 52.466L56.4016 52.4554L56.4043 52.3254L56.4044 52.3223L56.4114 52.062L56.4115 52.0584L56.4205 51.7985L56.4206 51.7956L56.4258 51.6655L56.4263 51.6527L56.4261 51.6399L56.4244 51.4897L56.4244 51.4862C56.4225 51.3811 56.4214 51.2724 56.4203 51.1617C56.4175 50.8713 56.4146 50.5674 56.3955 50.2785C56.3921 50.2116 56.3889 50.1388 56.3857 50.0642C56.3806 49.9454 56.3752 49.8218 56.3682 49.7089L56.3684 49.7089L56.3675 49.6986L56.323 49.1613C56.3069 48.904 56.276 48.6474 56.2487 48.4208C56.2372 48.3248 56.2263 48.2342 56.2174 48.1511L56.2174 48.1511L56.2169 48.1472L56.1912 47.9214L56.1913 47.9214L56.1902 47.9129C56.1833 47.8603 56.1738 47.8001 56.166 47.7505C56.1624 47.7274 56.1591 47.7066 56.1566 47.6899L56.1564 47.6882L56.0959 47.2914L56.0956 47.2899C56.0901 47.2547 56.0843 47.2148 56.0782 47.1732C56.0663 47.092 56.0534 47.004 56.04 46.9295L56.0401 46.9295L56.0391 46.9244L55.9836 46.6322L55.9833 46.631L55.9625 46.5189L67.5505 43.2166L67.6626 43.5647L67.663 43.566L67.7982 43.9899C67.8284 44.0877 67.8566 44.1876 67.888 44.2984C67.9046 44.3572 67.9221 44.4189 67.9411 44.4851C67.9413 44.4856 67.9414 44.486 67.9415 44.4865L68.1038 45.0604L68.1045 45.0627L68.1893 45.3681L68.2691 45.6895C68.2692 45.69 68.2693 45.6905 68.2695 45.691C68.2973 45.8058 68.3258 45.9207 68.3545 46.0364C68.442 46.3891 68.5313 46.7488 68.607 47.1317L68.6069 47.1317L68.608 47.137L68.7749 47.9369C68.8103 48.1227 68.8426 48.3094 68.8761 48.5035C68.8912 48.5907 68.9065 48.6795 68.9225 48.7702L68.9225 48.7702L68.9234 48.7752C69.009 49.2342 69.0733 49.7073 69.1408 50.2033C69.1554 50.3106 69.1701 50.419 69.1853 50.5286C69.1853 50.529 69.1854 50.5295 69.1855 50.5299L69.2146 50.7494L69.2389 50.9893L69.2391 50.9911L69.288 51.4884L69.2882 51.4902L69.3355 51.9904L69.3357 51.9922L69.3582 52.24L69.3732 52.4314L69.3732 52.4317L69.4331 53.2024L69.4331 53.2028L69.4479 53.3943L69.4479 53.3945L69.4489 53.4078L69.4502 53.5215L69.4503 53.5288L69.4506 53.5361L69.4511 53.5494L69.4511 53.5506L69.4533 53.6073L69.4533 53.6074L69.4577 53.7223L69.4577 53.7231L69.4745 54.1831L69.4746 54.1839L69.4903 54.6356L69.4951 55.0823C69.4954 55.1886 69.4966 55.2897 69.4977 55.3878C69.5 55.5845 69.5021 55.7689 69.4968 55.9579H69.4967L69.4967 55.9623L69.4803 56.8213L69.4492 57.516ZM55.8428 46.553L55.8429 46.553C55.8428 46.553 55.8429 46.553 55.8428 46.553Z" stroke="#8A919D"/>
<path d="M49.0807 33.0393L48.8306 32.7749C48.7747 32.7158 48.7081 32.6507 48.6575 32.6013C48.6352 32.5795 48.616 32.5608 48.6023 32.547L48.5998 32.5445L48.5054 32.4512L54.6938 24.9604L54.9685 25.1712C55.0113 25.2047 55.0515 25.2355 55.091 25.2657C55.1606 25.319 55.2279 25.3705 55.3038 25.4324C55.304 25.4326 55.3042 25.4327 55.3043 25.4329L55.7015 25.7586L55.7024 25.7593L56.1495 26.1277L56.6327 26.5502C56.697 26.6075 56.7584 26.661 56.8184 26.7134C56.9308 26.8113 57.0381 26.905 57.1502 27.0106L57.1513 27.0117L57.7056 27.5305L57.7056 27.5306L57.7093 27.5339C57.8736 27.6848 58.0354 27.8465 58.2099 28.0208C58.2289 28.0398 58.248 28.0589 58.2673 28.0782C58.3374 28.1491 58.4053 28.2166 58.472 28.2829C58.5996 28.4097 58.7227 28.532 58.8475 28.6644C58.8476 28.6645 58.8477 28.6646 58.8478 28.6647L59.441 29.2965L59.441 29.2965L59.4437 29.2994C59.538 29.3982 59.6309 29.5019 59.7258 29.6108L59.7275 29.6127L60.0225 29.9477L60.0232 29.9484L60.3191 30.2856C60.3193 30.2858 60.3195 30.286 60.3197 30.2863C60.3806 30.3561 60.4357 30.4231 60.4957 30.4961C60.5289 30.5364 60.5635 30.5786 60.6015 30.6241C60.6617 30.6974 60.7212 30.7693 60.78 30.8405C60.913 31.0013 61.043 31.1585 61.1716 31.3201L61.727 32.0391L61.7279 32.0402L61.8617 32.2145L61.9906 32.392L61.9911 32.3928L62.2556 32.7585L62.2555 32.7585L62.2591 32.7634C62.5173 33.1119 62.753 33.4638 62.9917 33.8201C63.0752 33.9447 63.159 34.0698 63.2442 34.1955L63.6889 34.9016L63.69 34.9035L63.9025 35.2439L64.101 35.5821L64.1016 35.5831L64.4858 36.2415C64.5667 36.3862 64.6428 36.5267 64.7187 36.6669C64.7539 36.7318 64.7891 36.7967 64.8247 36.862C64.8249 36.8623 64.825 36.8627 64.8252 36.863L64.9837 37.1555C64.984 37.1561 64.9843 37.1567 64.9846 37.1573C65.0061 37.1977 65.0245 37.2315 65.0413 37.2623C65.0733 37.321 65.0994 37.369 65.1295 37.4311L65.1295 37.4311L65.1318 37.4357L65.4175 38.0107L65.4185 38.0127L65.6662 38.5171C65.7254 38.642 65.78 38.7569 65.8294 38.8607C65.8294 38.8607 65.8294 38.8608 65.8295 38.8608L65.9057 39.0218L55.1618 43.3384L55.105 43.1681L55.1048 43.1677L54.9889 42.8216L54.9889 42.8216L54.9865 42.8147L54.8837 42.5226L54.8823 42.5187L54.7699 42.19C54.7509 42.1301 54.7183 42.0484 54.6993 42.0008C54.6937 41.9867 54.6892 41.9757 54.6867 41.969L54.6867 41.969L54.6849 41.9642L54.6008 41.7497L54.6005 41.7491L54.422 41.293L54.4189 41.2853L54.4157 41.2777L54.2093 40.7973L54.2086 40.7955L54.1017 40.5443L54.0983 40.5362L54.0945 40.5283L53.9761 40.2748L53.9757 40.274L53.7308 39.7478L53.726 39.7376L53.7208 39.7276C53.6661 39.6227 53.6089 39.5088 53.5492 39.3901C53.4265 39.1461 53.2936 38.8819 53.1522 38.6341L53.0048 38.3646L53.0042 38.3634L52.9296 38.2263L52.9251 38.2181L52.9204 38.2101L52.8408 38.0758L52.8401 38.0747L52.5188 37.5298L52.5189 37.5298L52.5148 37.5231C52.4481 37.414 52.3737 37.2975 52.3028 37.1865C52.2572 37.115 52.213 37.0457 52.1733 36.9823L52.1733 36.9823L52.17 36.9771C52.1561 36.9555 52.1394 36.9288 52.1209 36.8994C52.0817 36.8368 52.0349 36.7623 51.9924 36.6998L51.9922 36.6996L51.8156 36.441L51.8148 36.4397L51.6413 36.1843C51.5828 36.0965 51.5194 36.004 51.4506 35.9127L51.0961 35.4261C51.0961 35.426 51.096 35.4259 51.0959 35.4258C51.0185 35.3192 50.9287 35.2051 50.8483 35.103C50.8049 35.0478 50.7643 34.9962 50.7299 34.9512L50.7299 34.9511L50.7273 34.9478C50.7093 34.9248 50.6911 34.9012 50.6726 34.8772C50.5757 34.7522 50.471 34.617 50.3626 34.4912L50.0253 34.0857C49.9506 33.9942 49.8611 33.8948 49.786 33.8112C49.7484 33.7694 49.7143 33.7316 49.6875 33.7007L49.6875 33.7007L49.6839 33.6966L49.3782 33.3524L49.3727 33.3462L49.3669 33.3401L49.0818 33.0404L49.0807 33.0393ZM65.968 39.1534C65.9679 39.1533 65.9679 39.1532 65.9678 39.1531L65.9679 39.1534L65.968 39.1534Z" stroke="#8A919D"/>
<path d="M35.398 25.9611C35.2585 25.9319 35.1244 25.9007 34.9948 25.8792C34.8458 25.8535 34.7043 25.8293 34.5714 25.8065C34.4382 25.7832 34.3135 25.7615 34.1983 25.7415C34.0823 25.7256 33.9759 25.7111 33.8797 25.698C33.7747 25.6836 33.6821 25.6709 33.6026 25.66C33.4161 25.6344 33.2805 25.4707 33.2895 25.2826L33.655 17.6507C33.6644 17.4553 33.8263 17.3024 34.0219 17.3047C34.1453 17.3062 34.2991 17.308 34.4804 17.3102C34.6092 17.3123 34.7519 17.3146 34.9071 17.3171C35.0622 17.3245 35.2301 17.3323 35.4095 17.3408C35.5891 17.3497 35.7802 17.3591 35.9817 17.369C36.1835 17.3785 36.3943 17.4009 36.6154 17.4178C36.8363 17.4368 37.0666 17.4565 37.3049 17.4769C37.5425 17.5051 37.7883 17.5344 38.0409 17.5644C38.1674 17.5797 38.2956 17.5952 38.4254 17.6109C38.5552 17.6272 38.6854 17.6498 38.8178 17.6695C39.0109 17.6996 39.208 17.7304 39.4067 17.7614" stroke="#8A919D"/>
<path d="M39.2354 17.7246C39.3026 17.7501 46.3022 19.6596 46.3689 19.6849C46.6322 19.7839 46.8842 19.896 47.1348 19.9986C47.3843 20.1033 47.6301 20.2032 47.863 20.3131C48.0974 20.4206 48.3256 20.5252 48.5463 20.6263C48.768 20.7261 48.9747 20.8361 49.1774 20.935C49.3792 21.0362 49.5725 21.1331 49.7565 21.2253C49.9496 21.3306 50.1328 21.4303 50.305 21.5241C50.477 21.619 50.6381 21.7076 50.787 21.7897C50.8513 21.8261 50.913 21.861 50.972 21.8944C51.0262 21.9255 51.0778 21.955 51.1268 21.9832C51.2335 22.0444 51.3278 22.0985 51.4085 22.1448C51.5901 22.2489 51.6459 22.4842 51.5309 22.6591L46.2971 30.6314C46.1823 30.8063 45.9443 30.8486 45.7766 30.7235C45.702 30.6679 45.6149 30.6029 45.5162 30.5293C45.4711 30.4955 45.4234 30.4599 45.3734 30.4226C45.3248 30.3865 45.2653 30.3414 45.2293 30.3166C45.1461 30.257 45.0561 30.1926 44.9601 30.1238C44.8641 30.0539 44.762 29.9796 44.6543 29.9013C44.5315 29.8198 44.4026 29.7343 44.2677 29.6449C44.1519 29.5699 35.3475 25.9845 35.2227 25.9061" stroke="#8A919D"/>
<path d="M30.1376 25.4414L30.4624 25.4397L30.1376 25.4414ZM30.1376 25.4414L29.7673 25.4439L30.1376 25.4414ZM26.787 25.1628L26.7841 25.1632L26.1653 25.2487L26.1567 25.2498L26.1482 25.2513L25.5109 25.3619L25.5109 25.3619L25.5078 25.3625C25.4782 25.3678 25.4434 25.3737 25.4061 25.3801C25.3321 25.3927 25.2478 25.4071 25.1732 25.422L25.1731 25.422L25.1672 25.4232L24.8417 25.4923L24.8407 25.4925L24.514 25.5613L24.5119 25.5617L24.5039 25.5634C24.3998 25.5848 24.2801 25.6095 24.16 25.6413L23.5013 25.8042L23.5013 25.8042L23.4978 25.8051C23.3538 25.8419 23.2007 25.886 23.0573 25.9274C22.9772 25.9505 22.9002 25.9727 22.8296 25.9922L22.8296 25.9922L22.8242 25.9937C22.7912 26.0032 22.7543 26.0136 22.7155 26.0245C22.6423 26.0451 22.5625 26.0676 22.4898 26.0896L22.4898 26.0895L22.4811 26.0924L22.1593 26.1964L22.1587 26.1966L21.8397 26.2993C21.8394 26.2994 21.8392 26.2995 21.8389 26.2996C21.829 26.3027 21.819 26.3059 21.8087 26.3092C21.7154 26.3389 21.6078 26.3732 21.502 26.4132L20.8919 26.6331C20.8914 26.6332 20.8909 26.6334 20.8904 26.6336C20.7528 26.6822 20.6049 26.7422 20.4732 26.7955C20.4053 26.8231 20.3416 26.8488 20.2861 26.8704L20.2861 26.8703L20.2806 26.8725C20.2431 26.8876 20.2043 26.9029 20.1646 26.9187C20.0144 26.9782 19.8516 27.0427 19.6982 27.1132L19.175 27.3428C19.0558 27.3936 18.9262 27.4567 18.8164 27.5101C18.7625 27.5364 18.7134 27.5603 18.6726 27.5793L18.6726 27.5793L18.6676 27.5816L18.2176 27.7974L18.2098 27.8012L18.2021 27.8052L17.8036 28.0135L17.8029 28.0139L17.4517 28.1968C17.4517 28.1968 17.4517 28.1968 17.4517 28.1968C17.4516 28.1968 17.4514 28.1969 17.4513 28.197C17.3734 28.2376 17.2882 28.2862 17.2218 28.3241C17.1921 28.3411 17.1661 28.356 17.1462 28.3669L17.1462 28.3669L17.1427 28.3689L16.9849 28.4579L14.1442 24.2815L14.3825 24.1056C14.4253 24.0746 14.4639 24.0459 14.5014 24.0181C14.5667 23.9695 14.6287 23.9235 14.7037 23.8717L15.1021 23.5974L15.1027 23.597L15.3231 23.4457L15.5508 23.2895L16.0577 22.9645C16.1308 22.9187 16.1978 22.8755 16.2625 22.8337C16.377 22.7598 16.4844 22.6905 16.6066 22.6192L16.6067 22.6192L16.6098 22.6173L17.2245 22.2527L17.2245 22.2527L17.2298 22.2495C17.3896 22.152 17.5559 22.0609 17.7377 21.9613C17.7799 21.9382 17.8229 21.9147 17.8668 21.8905C17.9543 21.8434 18.0361 21.7981 18.1157 21.7541C18.2605 21.6741 18.3977 21.5981 18.5477 21.523L18.5489 21.5223L19.2798 21.1534L19.2798 21.1534L19.2848 21.1508C19.3876 21.0974 19.4938 21.0483 19.6132 20.9931C19.6225 20.9888 19.6317 20.9845 19.6411 20.9802L19.6413 20.9801L20.0241 20.8028L20.0245 20.8026L20.4074 20.6259C20.4889 20.5898 20.568 20.5565 20.6518 20.5213C20.6962 20.5026 20.742 20.4833 20.7901 20.4628C20.8837 20.4239 20.9738 20.3856 21.062 20.3482C21.2347 20.2749 21.4005 20.2045 21.5733 20.1368L22.3791 19.8292L22.3791 19.8292L22.3843 19.8272C22.5054 19.7794 22.6302 19.7367 22.7672 19.6901L22.7684 19.6897L23.173 19.551L23.1735 19.5508L23.5731 19.4145C23.6554 19.3875 23.7333 19.3639 23.817 19.3386C23.8633 19.3246 23.9113 19.3101 23.9629 19.2941C23.9635 19.294 23.9641 19.2938 23.9647 19.2936L24.746 19.0581L25.509 18.8548C25.5096 18.8546 25.5102 18.8545 25.5108 18.8543C25.5631 18.8408 25.61 18.8282 25.6542 18.8164C25.7306 18.7959 25.7989 18.7776 25.8734 18.7601C25.8737 18.76 25.874 18.76 25.8743 18.7599L26.2411 18.6756L26.242 18.6754L26.9436 18.5156L27.6031 18.3881L27.6042 18.3879L27.9174 18.3281C27.9176 18.3281 27.9178 18.328 27.9179 18.328C27.9391 18.324 27.9591 18.3202 27.9783 18.3165C28.0606 18.3008 28.1282 18.2879 28.2024 18.2774L28.2024 18.2775L28.208 18.2766L28.798 18.1867L28.8 18.1864L29.3148 18.1101L29.6841 18.0631L29.6845 18.063L29.8618 18.0407L30.314 24.9405L30.1349 24.9414L30.1343 24.9414L29.764 24.9439V24.9437L29.7515 24.9441L29.4005 24.9552L29.3979 24.9553L29.0024 24.9656C28.9292 24.966 28.8466 24.9719 28.7842 24.9764C28.7707 24.9774 28.7581 24.9783 28.7467 24.979L28.7459 24.9791L28.4995 24.9959L28.499 24.9959L27.9735 25.0312L27.9643 25.0318L27.9551 25.0327L27.3946 25.0909L27.3939 25.091L27.1016 25.1207L27.0994 25.121C27.028 25.1285 26.9444 25.1405 26.8743 25.1505C26.8414 25.1553 26.8114 25.1596 26.787 25.1628ZM14.0379 24.3601L14.0379 24.36L14.0379 24.3601ZM30.0063 18.0224C30.0063 18.0224 30.0063 18.0224 30.0063 18.0224L30.0063 18.0224Z" stroke="#8A919D"/>
<path d="M6.90603 31.6205L6.90604 31.6205L6.90777 31.618C6.98333 31.5097 7.05662 31.4077 7.1316 31.3109L7.13163 31.3109L7.1353 31.306L7.61375 30.6729C7.61381 30.6728 7.61388 30.6727 7.61394 30.6726C7.71328 30.5416 7.81102 30.4213 7.91331 30.2955C7.96898 30.227 8.02599 30.1568 8.08535 30.0824C8.10424 30.059 8.12291 30.0358 8.14138 30.0129C8.28057 29.8402 8.4087 29.6813 8.54039 29.5323L8.54041 29.5323L8.54429 29.5278L9.00135 28.998L9.00136 28.998L9.00283 28.9962C9.09339 28.8903 9.17933 28.7976 9.2704 28.6995C9.32191 28.6439 9.37505 28.5867 9.4316 28.5242L9.83386 28.0885L10.2244 27.6923L10.2255 27.6912L10.5755 27.338L10.5755 27.338L10.5778 27.3357C10.6131 27.2996 10.6394 27.2743 10.6702 27.2447C10.6836 27.2319 10.6978 27.2182 10.714 27.2026C10.7142 27.2023 10.7145 27.2021 10.7147 27.2018L10.8415 27.0797L10.842 27.0793L10.9708 26.9553L13.9459 30.4407L13.8033 30.5483L13.8028 30.5487L13.6602 30.6563L13.6591 30.6571C13.6511 30.6632 13.641 30.6708 13.6296 30.6793C13.5916 30.7078 13.5391 30.7473 13.4986 30.7805L13.2033 31.0157L13.2026 31.0163L12.8613 31.2865L12.8543 31.2921L12.8474 31.2979L12.4609 31.6271L12.4609 31.6271L12.4571 31.6304C12.4207 31.662 12.3773 31.6987 12.3303 31.7383C12.2351 31.8186 12.1251 31.9114 12.0281 32.001C12.0276 32.0014 12.0272 32.0018 12.0267 32.0022L11.5932 32.3967C11.4537 32.5199 11.3174 32.6528 11.1889 32.778C11.1667 32.7997 11.1447 32.8211 11.123 32.8422L11.123 32.8422L11.1203 32.8448C11.0742 32.8903 11.0221 32.9405 10.967 32.9935C10.8621 33.0946 10.7466 33.2057 10.6428 33.3133C10.6428 33.3133 10.6427 33.3133 10.6427 33.3133L10.1728 33.8C10.084 33.8896 10.0004 33.9809 9.92156 34.0694C9.92113 34.0699 9.92071 34.0704 9.92028 34.0709L9.68761 34.328L9.68744 34.3282L9.44987 34.5903L9.44944 34.5908C9.39226 34.654 9.33096 34.7268 9.27764 34.7902C9.25268 34.8198 9.22947 34.8474 9.20925 34.871L9.20923 34.8709L9.20587 34.8749C9.1541 34.9365 9.0991 35.001 9.04277 35.0671C8.94223 35.185 8.83742 35.308 8.73907 35.428L8.73903 35.428L8.73441 35.4338L8.28769 35.9961L8.28747 35.9964L8.17613 36.1364L8.17095 36.1429L8.16598 36.1496L8.05972 36.2928L8.05951 36.2931L7.8497 36.5755C7.6437 36.8437 7.44885 37.126 7.26604 37.3909C7.18662 37.5059 7.10948 37.6177 7.03468 37.7236L7.02884 37.7319L7.02335 37.7403L6.66115 38.2996L6.66065 38.3003L6.48528 38.5717L6.48103 38.5783L6.47699 38.585L6.31438 38.8549L6.3141 38.8554L6.00112 39.3738L5.99708 39.3805L5.99324 39.3873L5.7155 39.8813L5.71549 39.8813L5.71363 39.8846C5.68674 39.9333 5.65712 39.9858 5.62661 40.0399C5.56847 40.1429 5.50706 40.2517 5.45495 40.3512L5.45394 40.3532L5.23731 40.7714L5.2373 40.7714L5.04596 41.1403L5.04253 41.1469L5.0393 41.1536L4.88655 41.4712L4.88602 41.4723L4.79603 41.6605L2.25763 40.6873L2.34324 40.4332L2.34387 40.4313L2.46876 40.0652L2.62902 39.6356L2.62925 39.6349L2.81449 39.14C2.81463 39.1396 2.81476 39.1392 2.8149 39.1389C2.85546 39.032 2.89813 38.929 2.94508 38.8156C2.9722 38.7501 3.00074 38.6812 3.03112 38.6061L3.27283 38.022L3.55085 37.4026L3.55104 37.4021L3.69517 37.0819L3.85189 36.759L3.85248 36.7578L4.18157 36.0845C4.2532 35.9506 4.32288 35.8179 4.39213 35.686C4.56481 35.357 4.73478 35.0333 4.92555 34.7092L4.92559 34.7092L4.92878 34.7037L5.1317 34.3484L5.13174 34.3483L5.23012 34.1762L5.33339 34.0074L5.3338 34.0067L5.76523 33.3043C5.8613 33.1529 5.95816 33.0065 6.05788 32.8558C6.10861 32.7791 6.16008 32.7013 6.21257 32.6211C6.24441 32.5735 6.27271 32.5303 6.29953 32.4894C6.34531 32.4196 6.38674 32.3564 6.43402 32.2889C6.43416 32.2887 6.4343 32.2885 6.43444 32.2883L6.67034 31.9539L6.67063 31.9535L6.90603 31.6205ZM14.0402 30.5511C14.0401 30.551 14.04 30.551 14.04 30.5509L14.0401 30.5511L14.0402 30.5511Z" stroke="#8A919D"/>
<path d="M2.20653 53.0118C2.2305 53.0113 2.26037 53.0137 2.29218 53.0182C2.23781 53.0187 2.18047 53.0239 2.12817 53.0328C2.15668 53.0233 2.18397 53.0158 2.20653 53.0118ZM1.83531 52.5027L1.77585 53.2481L1.77584 53.2483L1.76227 53.4177C1.76095 53.4261 1.76009 53.4331 1.75955 53.4377L1.75823 53.4506L1.75754 53.459L1.75689 53.4695L1.75661 53.4758L1.75638 53.4829L1.75635 53.4846L1.75425 53.5303L1.75423 53.5307L1.74975 53.6263L1.74974 53.6267L1.732 54.0085L1.73199 54.0088L1.71431 54.3877L1.71416 54.3877L1.71389 54.4001L1.706 54.7585L1.706 54.7588L1.6982 55.1129L1.69819 55.1132L1.69428 55.2892L1.69409 55.2892L1.69417 55.303L1.69528 55.4797L1.69528 55.4799L1.69948 56.1728L1.6993 56.1728L1.69974 56.1861L1.72139 56.8473C1.7256 57.037 1.73714 57.2229 1.74768 57.3928C1.74978 57.4266 1.75184 57.4598 1.75379 57.4922L1.75379 57.4922L1.75398 57.4952C1.75443 57.502 1.75488 57.5089 1.75532 57.5157H1.03513C1.03251 57.5014 1.0299 57.4872 1.0273 57.4731C0.994491 57.2945 0.962759 57.1218 0.937078 56.9434L0.937101 56.9434L0.936375 56.9387L0.830587 56.2515L0.739002 55.5312L0.738942 55.5307L0.716234 55.3512L0.697939 55.1677L0.697894 55.1673L0.659955 54.782L0.659922 54.7817L0.622523 54.3969L0.595023 54.024L0.566872 53.6422L0.5598 53.5466L0.559798 53.5465L0.556904 53.5073L0.554738 53.4517L0.554692 53.4506L0.546521 53.2522L0.546513 53.252L0.514077 52.4547L0.51403 52.4535L0.506719 52.2624L0.505519 52.0705L0.505517 52.0702L0.503161 51.6706L0.503159 51.6703L0.500952 51.272L0.50095 51.2716L0.500033 51.0813L0.505131 50.8935C0.505143 50.8932 0.505154 50.8928 0.505165 50.8924C0.508883 50.7743 0.512116 50.658 0.515304 50.5432C0.52664 50.1353 0.537415 49.7476 0.567478 49.3684L0.56751 49.3684L0.567897 49.3627C0.574115 49.271 0.579662 49.1826 0.585083 49.0962C0.595027 48.9378 0.604545 48.7862 0.616992 48.6331L0.686775 47.9295L0.686824 47.9295L0.687416 47.9225C0.714945 47.5994 0.756426 47.2974 0.79776 46.9964C0.813603 46.8811 0.829424 46.7659 0.844431 46.6497L0.883614 46.3605C0.892336 46.3033 0.901427 46.2508 0.911254 46.1941C0.917052 46.1606 0.923105 46.1256 0.929491 46.0873L1.02002 45.5606C1.03081 45.4994 1.04069 45.4418 1.05007 45.3871C1.0674 45.286 1.08301 45.1949 1.09947 45.1103L1.17352 44.7458L1.17357 44.7455L1.20923 44.57L3.38403 45.15L3.32766 45.3199L3.32752 45.3203L3.2096 45.6753L3.20958 45.6753L3.20834 45.6791C3.18055 45.7652 3.15324 45.8578 3.127 45.9468C3.11324 45.9935 3.09977 46.0392 3.08668 46.0824L3.08667 46.0824L3.08609 46.0844L2.95274 46.5307L2.95274 46.5307L2.95224 46.5324C2.94603 46.5535 2.9386 46.5781 2.93056 46.6047C2.91388 46.6598 2.89458 46.7237 2.87814 46.7827L2.87807 46.7827L2.87587 46.7912L2.80781 47.0535L2.8078 47.0535L2.80699 47.0567C2.78342 47.1501 2.7573 47.2493 2.72998 47.3531C2.65882 47.6234 2.57947 47.9249 2.51547 48.2343L2.37371 48.8689L2.37363 48.8689L2.3718 48.8778C2.34245 49.0214 2.31452 49.1727 2.2873 49.3202C2.27264 49.3996 2.25819 49.4779 2.24384 49.5532C2.17029 49.915 2.11403 50.2924 2.05913 50.6606C2.0426 50.7715 2.02619 50.8815 2.00946 50.9901L2.00946 50.9901L2.00912 50.9923L1.98193 51.1744L1.98067 51.1829L1.9797 51.1914L1.95872 51.3745L1.9587 51.3747L1.91637 51.7429L1.91634 51.7431L1.87365 52.1131L1.87364 52.1132L1.8522 52.299L1.85124 52.3073L1.85055 52.3157L1.83537 52.5019L1.83531 52.5027ZM3.42996 45.0116L3.42987 45.0119L3.42996 45.0116Z" stroke="#8A919D"/>
<path d="M41.7377 63.032L41.7377 63.032C42.4236 62.2443 42.8926 61.3381 43.1467 60.3896C43.783 58.0151 43.0725 55.3747 41.0905 53.6486C40.7049 53.3126 40.2686 53.0201 39.8475 52.7931L39.842 52.7902L17.3562 40.8473L8.79291 36.299L8.79289 36.299L3.48816 33.4814L3.48815 33.4814C2.88365 33.1603 2.2346 33.1833 1.70656 33.4573C1.20784 33.716 0.847401 34.1807 0.706575 34.7062C0.531439 35.3599 0.699097 36.1097 1.31293 36.6445L1.31305 36.6446L6.02495 40.7483L6.68171 39.9942L6.02495 40.7483L12.976 46.8022L32.3542 63.6793C35.1241 66.0917 39.3253 65.8019 41.7377 63.032ZM34.9274 57.9703C35.1804 57.0263 36.1507 56.466 37.0948 56.719C38.0387 56.9719 38.599 57.9423 38.3461 58.8863C38.0932 59.8303 37.1227 60.3906 36.1787 60.1377C35.2346 59.8847 34.6745 58.9144 34.9274 57.9703Z" fill="#8A919D" stroke="white" stroke-width="2"/>
</g>
<defs>
<clipPath id="clip0">
<rect width="70" height="70" fill="white"/>
</clipPath>
</defs>
</svg>
