<svg width="70" height="70" viewBox="0 0 70 70" fill="none" xmlns="http://www.w3.org/2000/svg">
<path d="M45.5667 70C43.6087 70 41.6506 69.9258 39.7519 69.8665C38.0164 69.8072 36.3847 69.7478 34.8865 69.7478C33.3883 69.7478 31.7566 69.8072 30.021 69.8665C28.1223 69.9407 26.1643 70 24.2063 70C19.6227 70 13.8969 69.644 10.2923 66.9294C4.28466 62.4052 2.44529 54.4988 5.35268 45.8063C5.36752 45.7766 5.36752 45.747 5.38235 45.7173L5.67902 45.0795C8.20074 39.6355 10.2033 35.3338 13.5112 30.8243L13.526 30.8095C16.5818 26.6264 20.038 21.9093 24.1024 19.4766C23.5684 18.1416 22.5894 16.5247 21.5659 14.8337C19.1331 10.8434 16.6114 6.71964 18.2283 3.58974C19.2963 1.52787 21.9812 0.370841 26.4313 0.0445008C26.817 0.0148335 27.1878 0 27.5438 0C29.6799 0 30.9407 0.519178 32.0533 0.964187C32.9433 1.33503 33.7146 1.64654 34.9013 1.69104C36.088 1.6317 36.8594 1.32019 37.7494 0.964187C38.8619 0.504344 40.1228 0 42.2588 0C42.6148 0 42.9857 0.0148335 43.3713 0.0445008C47.8214 0.370841 50.5063 1.52787 51.5743 3.58974C53.1912 6.71964 50.6695 10.8434 48.2368 14.8337C47.2132 16.5247 46.2194 18.1267 45.7002 19.4766C49.7795 21.9093 53.2357 26.6412 56.2914 30.8243C59.5993 35.3338 61.587 39.6355 64.1236 45.0795L64.4203 45.7173C64.4351 45.747 64.4499 45.7766 64.4499 45.8063C67.3573 54.4988 65.518 62.3903 59.5103 66.9294C55.8613 69.644 50.1503 70 45.5667 70ZM34.8865 68.0271C36.4292 68.0271 38.0757 68.0865 39.8113 68.1458C41.6951 68.22 43.6383 68.2793 45.5667 68.2793C49.8833 68.2793 55.2531 67.9678 58.4423 65.5499C63.8269 61.4855 65.4586 54.3208 62.8182 46.3848L62.5364 45.7915C60.0443 40.4365 58.0863 36.2089 54.8822 31.833C51.7672 27.5758 48.2516 22.74 44.2317 20.6188C43.8757 20.4259 43.6977 20.0106 43.8163 19.6249C44.3058 17.9636 45.5074 16.0055 46.7534 13.9436C48.8449 10.5171 51.2035 6.64548 50.0316 4.37593C49.2751 2.9074 46.9907 2.03221 43.223 1.75037C42.8818 1.7207 42.5555 1.70587 42.244 1.70587C40.4343 1.70587 39.4404 2.10638 38.3724 2.55139C37.4082 2.93706 36.4143 3.35241 34.9161 3.41174C34.8865 3.41174 34.8716 3.41174 34.842 3.41174C33.3289 3.35241 32.3351 2.9519 31.3857 2.55139C30.3325 2.12121 29.3239 1.70587 27.529 1.70587C27.2175 1.70587 26.8911 1.7207 26.55 1.75037C22.7822 2.01738 20.4978 2.9074 19.7413 4.37593C18.5695 6.64548 20.9428 10.5171 23.0196 13.9436C24.2804 16.0055 25.4671 17.9636 25.9715 19.6249C26.0901 20.0106 25.9121 20.4408 25.5561 20.6188C21.551 22.7252 18.0355 27.5461 14.9204 31.8033L14.9056 31.833C11.7015 36.2089 9.72861 40.4365 7.25139 45.7915L6.96955 46.3848C4.32916 54.3208 5.96086 61.4855 11.3455 65.5499C14.5495 67.9678 19.9045 68.2793 24.2211 68.2793C26.1495 68.2793 28.0927 68.2051 29.9765 68.1458C31.6972 68.0865 33.3438 68.0271 34.8865 68.0271Z" fill="#8A919D"/>
<path d="M44.633 20.7227H25.1416C24.6669 20.7227 24.2812 20.337 24.2812 19.8623C24.2812 19.3876 24.6669 19.002 25.1416 19.002H44.633C45.1077 19.002 45.4934 19.3876 45.4934 19.8623C45.4934 20.337 45.0929 20.7227 44.633 20.7227Z" fill="#8A919D"/>
<path d="M35.4658 58.3711C27.3963 58.3711 20.8398 51.8146 20.8398 43.7451C20.8398 35.6756 27.3963 29.1191 35.4658 29.1191C43.5353 29.1191 50.0918 35.6756 50.0918 43.7451C50.0918 51.8146 43.5205 58.3711 35.4658 58.3711ZM35.4658 30.825C28.3457 30.825 22.5605 36.625 22.5605 43.7451C22.5605 50.8653 28.3457 56.6652 35.4658 56.6652C42.586 56.6652 48.3711 50.8653 48.3711 43.7451C48.3711 36.625 42.586 30.825 35.4658 30.825Z" fill="#8A919D"/>
<path d="M35.5246 53.7414C34.3527 53.7414 33.2106 53.4744 32.276 52.9849C31.564 52.6289 30.941 52.0207 30.4218 51.2049C29.9175 50.4187 29.6208 49.4397 29.5466 48.3123C29.517 47.8376 29.873 47.4371 30.3328 47.3926C30.8075 47.363 31.208 47.719 31.2525 48.1788C31.3119 49.0243 31.5195 49.7215 31.8607 50.2704C32.2167 50.8192 32.6172 51.2197 33.0622 51.4422C34.6939 52.2877 37.3491 52.2432 38.699 50.8192C39.3814 50.1072 39.7077 49.2172 39.7077 48.1343C39.7077 47.6596 39.6335 47.1998 39.4704 46.7844C39.2923 46.3691 39.0847 46.0428 38.8028 45.7609L38.788 45.7461C38.4913 45.4494 38.1057 45.1972 37.631 44.9896C36.919 44.6781 36.207 44.4852 35.4653 44.2924C34.3972 44.0106 33.2996 43.7139 32.1129 43.0464C31.386 42.6459 30.7927 42.0673 30.3922 41.3108C29.9917 40.584 29.7988 39.783 29.7988 38.8781C29.7988 37.2909 30.3773 35.9707 31.5195 34.962C32.4392 34.161 33.8336 33.7012 35.3911 33.7012C36.9041 33.7012 38.2837 34.1313 39.1885 34.9027C40.1675 35.7334 40.7609 36.8607 40.9686 38.2699C41.0279 38.7446 40.7015 39.1748 40.2417 39.2341C39.7819 39.2935 39.3369 38.9671 39.2775 38.5073C39.144 37.5134 38.7435 36.7717 38.0908 36.2081C37.4975 35.7037 36.4888 35.407 35.4059 35.407C34.2934 35.407 33.2551 35.7334 32.6617 36.2526C31.8904 36.9201 31.5195 37.7804 31.5195 38.8781C31.5195 39.5011 31.653 40.0203 31.9052 40.495C32.1574 40.9548 32.4985 41.296 32.9584 41.5482C33.9671 42.1118 34.9164 42.364 35.9251 42.631C36.6965 42.8387 37.5123 43.0464 38.343 43.4172C39.0253 43.7139 39.589 44.0847 40.034 44.5446C40.479 44.9896 40.8202 45.5088 41.0872 46.1466C41.0872 46.1614 41.0872 46.1614 41.1021 46.1763C41.3246 46.7844 41.4432 47.452 41.4432 48.1343C41.4432 49.6622 40.9389 50.9675 39.9599 51.9911C38.788 53.2222 37.1415 53.7414 35.5246 53.7414Z" fill="#8A919D"/>
<path d="M35.4502 55.6409C34.9755 55.6409 34.5898 55.2552 34.5898 54.7805V32.7822C34.5898 32.3076 34.9755 31.9219 35.4502 31.9219C35.9249 31.9219 36.3105 32.3076 36.3105 32.7822V54.7953C36.3105 55.2552 35.9249 55.6409 35.4502 55.6409Z" fill="#8A919D"/>
</svg>
