<svg width="70" height="70" viewBox="0 0 70 70" fill="none" xmlns="http://www.w3.org/2000/svg">
<g clip-path="url(#clip0)">
<path d="M46.5465 47.4873C46.8725 47.4304 46.9531 47.9617 46.6272 48.0186L36.8314 49.5295C36.5054 49.5864 36.4248 49.0551 36.7507 48.9982L46.5465 47.4873ZM48.0415 25.3888C48.3675 25.3347 48.4442 25.8661 48.1182 25.9201L37.9797 27.4217C37.6538 27.4758 37.5771 26.9445 37.903 26.8904L48.0415 25.3888ZM47.1516 47.3546C47.2094 47.4123 47.2362 47.4924 47.2311 47.5708L47.1056 56.4693L64.1951 53.4176C64.9598 53.281 65.1711 53.2173 65.1869 52.3241L65.3128 45.2297C65.3101 44.6729 65.3348 44.6394 64.8301 44.7509L47.2237 48.0899C46.5718 48.2036 46.4106 47.1409 47.0625 47.0272L64.6688 43.6883C65.453 43.5502 65.5262 43.3513 65.0099 42.7152L60.947 37.7092L60.9102 40.4672C60.8909 41.9175 60.2155 42.4049 58.9648 42.6293L16.743 50.2024L17.3903 50.988C17.9244 51.6362 18.4566 51.8299 19.2509 51.6867L36.0931 48.755C36.745 48.6385 36.9102 49.7012 36.2583 49.8176L19.4161 52.7494C18.2722 52.9555 17.4074 52.6332 16.639 51.7006L15.5769 50.4116L13.2863 50.8225C12.1474 51.0268 11.2729 50.7132 10.5073 49.7808L6.53219 44.94L6.50513 47.419C6.49595 48.2582 6.56718 48.4694 7.0797 49.0723L17.0527 60.8049C17.5966 61.4448 18.1183 61.6456 18.9172 61.5029L36.6338 58.3392L36.7507 49.4202L34.6744 47.2718C34.4338 47.0291 34.778 46.637 35.0186 46.8796L37.1751 49.1092C37.2322 49.1667 37.2585 49.246 37.2536 49.3237L37.1365 58.2495L46.6028 56.5591L46.7281 47.668L44.4419 45.6285C44.2 45.3872 44.5422 44.9929 44.7841 45.2342L47.1516 47.3546ZM33.4911 38.283L33.3115 46.1384L42.9135 44.4161L42.9706 36.5902L33.4911 38.283ZM32.8077 46.2287L32.9873 38.3729L20.8094 40.5476C19.8714 40.7151 19.0673 40.5411 18.352 39.8554L14.1155 40.62C12.9768 40.8255 12.1112 40.4931 11.3404 39.5755L1.00638 27.2751L1.00438 35.6169C1.00418 36.4647 1.07814 36.6658 1.58485 37.2829L11.2625 49.0682C11.7974 49.7196 12.3261 49.9025 13.1212 49.7599L32.8077 46.2287ZM43.4728 36.5005L43.4157 44.326L58.7996 41.5667C59.5624 41.4298 59.8953 41.3482 59.9072 40.4545L59.9992 33.5494L43.4728 36.5005ZM37.7271 36.4344L37.9812 27.3685L29.6106 17.0526C29.3936 16.7853 29.7732 16.4311 29.9902 16.6984L38.4247 27.093L38.4857 27.2775L38.2315 36.3444L47.8395 34.6286L48.0415 25.6667L43.3153 19.9019C43.097 19.636 43.4746 19.2797 43.6929 19.5456L48.4835 25.3888L48.5454 25.5733L48.3433 34.5387L66.2173 31.3469C66.9821 31.2104 67.1932 31.1466 67.2092 30.2534L67.3345 23.2667C67.3344 22.6948 67.3958 22.682 66.8008 22.7848L48.4515 26.2161C47.7996 26.3298 47.6384 25.2671 48.2902 25.1535L66.6395 21.7222C67.4348 21.5972 67.6117 21.3619 67.0558 20.7652L56.0911 8.99606C54.7817 7.59055 54.5527 7.59543 52.7262 7.9012L36.2841 10.6538L43.6067 19.4741C43.8263 19.7386 43.4506 20.097 43.231 19.8325L35.693 10.7527L26.4248 12.3044L30.2776 17.0526C30.4946 17.3199 30.115 17.6741 29.898 17.4068L25.8376 12.4027L10.018 15.0511C8.49254 15.3136 8.20532 15.5244 9.1957 16.6136L19.4126 29.0128C19.9482 29.6629 20.4787 29.853 21.2751 29.7115L35.0856 27.258C42 26.3606 35.8987 28.207 35.2468 28.3207L21.4364 30.7741C20.2949 30.9769 19.4285 30.6564 18.6613 29.7254L8.52932 17.4292L8.52738 25.342C8.52717 26.1898 8.60116 26.3909 9.10785 27.008L18.7855 38.7933C19.3204 39.4447 19.8493 39.6269 20.6442 39.485L37.7271 36.4344ZM18.1639 52.9785C18.169 52.6249 18.6705 52.6333 18.6654 52.9869L18.6061 61.3869C18.6009 61.7404 18.0994 61.7321 18.1046 61.3785L18.1639 52.9785ZM12.2983 40.8971C12.3022 40.5436 12.8036 40.5498 12.7998 40.9035L12.7405 49.3098C12.7366 49.6633 12.2351 49.6571 12.239 49.3035L12.2983 40.8971ZM19.8161 30.4035C19.8213 30.0499 20.3228 30.0583 20.3176 30.4119L20.3769 38.901C20.3717 39.2545 19.811 39.2546 19.8161 38.901V30.4035ZM68.3622 21.9012L68.2122 30.2703C68.1862 31.7169 67.6336 32.1861 66.3825 32.4095L61.0048 33.3698L60.9685 36.092L65.769 42.0067C66.3519 42.7248 66.3548 43.0426 66.3407 43.8391L66.1899 52.341C66.1642 53.7877 65.6114 54.2569 64.3602 54.4802L19.0824 62.5655C17.9403 62.7695 17.0874 62.4457 16.3092 61.5302L6.33626 49.7976C5.65054 48.9909 5.48997 48.5162 5.50209 47.4064L5.54222 43.7345L0.82957 37.9955C0.160528 37.1807 0.00103596 36.723 0.00129172 35.6169L0.0036441 25.8513C-0.0599378 24.1861 0.710972 24.1181 2.123 23.8703L7.52492 22.9222L7.52671 15.6991C7.59766 14.3809 8.8084 14.1653 9.65 14.0244L52.5728 6.8386C54.7296 6.47752 55.2489 6.56888 56.803 8.23705L67.7677 20.0062C68.4521 20.7409 68.3772 21.068 68.3622 21.9012ZM17.5405 38.9094L8.35266 27.7206C7.68362 26.9058 7.52413 26.4481 7.52439 25.342L7.52472 24.0132L2.28433 24.9329C0.892716 25.1545 0.807267 25.4372 1.67071 26.4553L12.0877 38.8545C12.6315 39.5018 13.146 39.7026 13.9502 39.5574L17.5405 38.9094Z" fill="#8A919D"/>
</g>
<defs>
<clipPath id="clip0">
<rect width="70" height="70" fill="white"/>
</clipPath>
</defs>
</svg>
